<svg version="1.1" xmlns="http://www.w3.org/2000/svg" viewBox="0 0 740 485" width="740" height="485">
  <!-- svg-source:excalidraw -->
  
  <defs>
    <style>
      @font-face {
        font-family: "Virgil";
        src: url("https://excalidraw.com/Virgil.woff2");
      }
      @font-face {
        font-family: "Cascadia";
        src: url("https://excalidraw.com/Cascadia.woff2");
      }
    </style>
  </defs>
  <rect x="0" y="0" width="740" height="485" fill="#ffffff"></rect><g stroke-linecap="round" transform="translate(310 180) rotate(0 60 50)"><path d="M57.8 -1.16 L122.09 54.62 L61.51 96.47 L1.85 54.06" stroke="none" stroke-width="0" fill="#fff5f5" fill-rule="evenodd"></path><path d="M62.71 1.93 C71.31 12.29, 82.63 16.7, 118.41 51.78 M59.7 0.53 C74.71 12.41, 87.06 22.56, 118.84 52.51 M123.07 47.5 C108.91 64.39, 97.46 69.3, 63.78 98.26 M120.6 49.4 C104.96 61.73, 87.17 76.66, 61.81 100.7 M63.11 99.57 C49.65 90.25, 31.06 78.6, 3.67 50.19 M59.11 99.71 C38.13 82.25, 16.96 63.28, 1.88 51.08 M-1.44 50.44 C19.28 33.39, 33.31 22.18, 62.18 -2.41 M0.44 53 C20.01 31.96, 43.21 12.92, 61.88 1.98" stroke="#c92a2a" stroke-width="2" fill="none"></path></g><g transform="translate(320 190) rotate(0 50 40)"><text x="50" y="NaN" font-family="Virgil, Segoe UI Emoji" font-size="18px" fill="#c92a2a" text-anchor="middle" style="white-space: pre;" direction="ltr">旧逻辑</text><text x="50" y="NaN" font-family="Virgil, Segoe UI Emoji" font-size="18px" fill="#c92a2a" text-anchor="middle" style="white-space: pre;" direction="ltr">失灵</text></g><g stroke-linecap="round" transform="translate(30 10) rotate(0 90 35)"><path d="M-3.2 -1.16 L182.09 3.62 L180.51 66.47 L1.85 73.06" stroke="none" stroke-width="0" fill="#e7f5ff"></path><path d="M1.71 1.93 C35.36 1.6, 70.88 -4.19, 178.41 0.78 M-1.3 0.53 C40.72 0.07, 79.86 -1.07, 178.84 1.51 M183.07 -3.5 C181.55 17.69, 182.93 27.17, 182.78 68.26 M180.6 -1.6 C180.92 17.07, 178.97 37.63, 180.81 70.7 M182.11 69.57 C143.24 73.18, 98.99 72.09, 3.67 69.19 M178.11 69.71 C112.16 70.94, 46.26 70.4, 1.88 70.08 M-1.44 69.44 C1.51 46.87, -1.96 30.21, 1.18 -2.41 M0.44 72 C-2.41 43.23, -1.4 17.27, 0.88 1.98" stroke="#1864ab" stroke-width="2" fill="none"></path></g><g transform="translate(40 20) rotate(0 80 25)"><text x="80" y="NaN" font-family="Virgil, Segoe UI Emoji" font-size="14px" fill="#1864ab" text-anchor="middle" style="white-space: pre;" direction="ltr">信号一</text></g><g transform="translate(45 45) rotate(0 0 0)"><text x="0" y="NaN" font-family="Virgil, Segoe UI Emoji" font-size="13px" fill="#1864ab" text-anchor="start" style="white-space: pre;" direction="ltr">战略规划赶不上变化</text></g><g stroke-linecap="round" transform="translate(530 10) rotate(0 90 35)"><path d="M-3.2 -1.16 L182.09 3.62 L180.51 66.47 L1.85 73.06" stroke="none" stroke-width="0" fill="#f3f0ff"></path><path d="M1.71 1.93 C35.36 1.6, 70.88 -4.19, 178.41 0.78 M-1.3 0.53 C40.72 0.07, 79.86 -1.07, 178.84 1.51 M183.07 -3.5 C181.55 17.69, 182.93 27.17, 182.78 68.26 M180.6 -1.6 C180.92 17.07, 178.97 37.63, 180.81 70.7 M182.11 69.57 C143.24 73.18, 98.99 72.09, 3.67 69.19 M178.11 69.71 C112.16 70.94, 46.26 70.4, 1.88 70.08 M-1.44 69.44 C1.51 46.87, -1.96 30.21, 1.18 -2.41 M0.44 72 C-2.41 43.23, -1.4 17.27, 0.88 1.98" stroke="#862e9c" stroke-width="2" fill="none"></path></g><g transform="translate(540 20) rotate(0 80 25)"><text x="80" y="NaN" font-family="Virgil, Segoe UI Emoji" font-size="14px" fill="#862e9c" text-anchor="middle" style="white-space: pre;" direction="ltr">信号二</text></g><g transform="translate(545 45) rotate(0 0 0)"><text x="0" y="NaN" font-family="Virgil, Segoe UI Emoji" font-size="13px" fill="#862e9c" text-anchor="start" style="white-space: pre;" direction="ltr">最佳实践变成最佳诅咒</text></g><g stroke-linecap="round" transform="translate(10 190) rotate(0 90 35)"><path d="M-3.2 -1.16 L182.09 3.62 L180.51 66.47 L1.85 73.06" stroke="none" stroke-width="0" fill="#fff5f7"></path><path d="M1.71 1.93 C35.36 1.6, 70.88 -4.19, 178.41 0.78 M-1.3 0.53 C40.72 0.07, 79.86 -1.07, 178.84 1.51 M183.07 -3.5 C181.55 17.69, 182.93 27.17, 182.78 68.26 M180.6 -1.6 C180.92 17.07, 178.97 37.63, 180.81 70.7 M182.11 69.57 C143.24 73.18, 98.99 72.09, 3.67 69.19 M178.11 69.71 C112.16 70.94, 46.26 70.4, 1.88 70.08 M-1.44 69.44 C1.51 46.87, -1.96 30.21, 1.18 -2.41 M0.44 72 C-2.41 43.23, -1.4 17.27, 0.88 1.98" stroke="#e64980" stroke-width="2" fill="none"></path></g><g transform="translate(20 200) rotate(0 80 25)"><text x="80" y="NaN" font-family="Virgil, Segoe UI Emoji" font-size="14px" fill="#e64980" text-anchor="middle" style="white-space: pre;" direction="ltr">信号三</text></g><g transform="translate(25 225) rotate(0 0 0)"><text x="0" y="NaN" font-family="Virgil, Segoe UI Emoji" font-size="13px" fill="#e64980" text-anchor="start" style="white-space: pre;" direction="ltr">绩效考核越来越难</text></g><g stroke-linecap="round" transform="translate(550 190) rotate(0 90 35)"><path d="M-3.2 -1.16 L182.09 3.62 L180.51 66.47 L1.85 73.06" stroke="none" stroke-width="0" fill="#fff9db"></path><path d="M1.71 1.93 C35.36 1.6, 70.88 -4.19, 178.41 0.78 M-1.3 0.53 C40.72 0.07, 79.86 -1.07, 178.84 1.51 M183.07 -3.5 C181.55 17.69, 182.93 27.17, 182.78 68.26 M180.6 -1.6 C180.92 17.07, 178.97 37.63, 180.81 70.7 M182.11 69.57 C143.24 73.18, 98.99 72.09, 3.67 69.19 M178.11 69.71 C112.16 70.94, 46.26 70.4, 1.88 70.08 M-1.44 69.44 C1.51 46.87, -1.96 30.21, 1.18 -2.41 M0.44 72 C-2.41 43.23, -1.4 17.27, 0.88 1.98" stroke="#d77a00" stroke-width="2" fill="none"></path></g><g transform="translate(560 200) rotate(0 80 25)"><text x="80" y="NaN" font-family="Virgil, Segoe UI Emoji" font-size="14px" fill="#d77a00" text-anchor="middle" style="white-space: pre;" direction="ltr">信号四</text></g><g transform="translate(565 225) rotate(0 0 0)"><text x="0" y="NaN" font-family="Virgil, Segoe UI Emoji" font-size="13px" fill="#d77a00" text-anchor="start" style="white-space: pre;" direction="ltr">组织边界模糊，内耗大</text></g><g stroke-linecap="round" transform="translate(280 380) rotate(0 90 35)"><path d="M-3.2 -1.16 L182.09 3.62 L180.51 66.47 L1.85 73.06" stroke="none" stroke-width="0" fill="#ebfbee"></path><path d="M1.71 1.93 C35.36 1.6, 70.88 -4.19, 178.41 0.78 M-1.3 0.53 C40.72 0.07, 79.86 -1.07, 178.84 1.51 M183.07 -3.5 C181.55 17.69, 182.93 27.17, 182.78 68.26 M180.6 -1.6 C180.92 17.07, 178.97 37.63, 180.81 70.7 M182.11 69.57 C143.24 73.18, 98.99 72.09, 3.67 69.19 M178.11 69.71 C112.16 70.94, 46.26 70.4, 1.88 70.08 M-1.44 69.44 C1.51 46.87, -1.96 30.21, 1.18 -2.41 M0.44 72 C-2.41 43.23, -1.4 17.27, 0.88 1.98" stroke="#2b8a3e" stroke-width="2" fill="none"></path></g><g transform="translate(290 390) rotate(0 80 25)"><text x="80" y="NaN" font-family="Virgil, Segoe UI Emoji" font-size="14px" fill="#2b8a3e" text-anchor="middle" style="white-space: pre;" direction="ltr">信号五</text></g><g transform="translate(295 415) rotate(0 0 0)"><text x="0" y="NaN" font-family="Virgil, Segoe UI Emoji" font-size="13px" fill="#2b8a3e" text-anchor="start" style="white-space: pre;" direction="ltr">人才培养跟不上折旧</text></g><g stroke-linecap="round"><g transform="translate(310 210) rotate(0 -50 -60)"><path d="M0.57 1.2 C-15.41 -18.49, -82.16 -100.12, -98.65 -120.45 M-2.57 -0.62 C-18.54 -19.65, -84.04 -97.48, -100.16 -117.06" stroke="#868e96" stroke-width="1.5" fill="none"></path></g></g><g stroke-linecap="round"><g transform="translate(430 210) rotate(0 50 -60)"><path d="M0.57 1.2 C17.93 -18.49, 84.51 -100.12, 101.35 -120.45 M-2.57 -0.62 C14.79 -19.65, 82.63 -97.48, 99.84 -117.06" stroke="#868e96" stroke-width="1.5" fill="none"></path></g></g><g stroke-linecap="round"><g transform="translate(270 230) rotate(0 -60 25)"><path d="M0.57 1.2 C-18.74 9.85, -98.83 41.55, -118.65 49.55 M-2.57 -0.62 C-21.88 8.68, -100.7 44.19, -120.16 52.94" stroke="#868e96" stroke-width="1.5" fill="none"></path></g></g><g stroke-linecap="round"><g transform="translate(470 230) rotate(0 60 25)"><path d="M0.57 1.2 C21.26 9.85, 101.17 41.55, 121.35 49.55 M-2.57 -0.62 C18.12 8.68, 99.3 44.19, 119.84 52.94" stroke="#868e96" stroke-width="1.5" fill="none"></path></g></g><g stroke-linecap="round"><g transform="translate(370 280) rotate(0 0 50)"><path d="M0.57 1.2 C1.26 18.18, 1.17 83.22, 1.35 99.55 M-2.57 -0.62 C-1.88 17.01, -0.7 85.85, -0.16 102.94" stroke="#868e96" stroke-width="1.5" fill="none"></path></g></g><g transform="translate(210 475) rotate(0 0 0)"><text x="0" y="NaN" font-family="Virgil, Segoe UI Emoji" font-size="14px" fill="#495057" text-anchor="start" style="white-space: pre;" direction="ltr">共同逻辑：环境持续快速变化</text></g></svg>