<svg version="1.1" xmlns="http://www.w3.org/2000/svg" viewBox="0 0 700 460" width="700" height="460">
  <!-- svg-source:excalidraw -->
  
  <defs>
    <style>
      @font-face {
        font-family: "Virgil";
        src: url("https://excalidraw.com/Virgil.woff2");
      }
      @font-face {
        font-family: "Cascadia";
        src: url("https://excalidraw.com/Cascadia.woff2");
      }
    </style>
  </defs>
  <rect x="0" y="0" width="700" height="460" fill="#ffffff"></rect><g stroke-linecap="round" transform="translate(250 190) rotate(0 100 60)"><path d="M-3.2 -1.16 L202.09 3.62 L200.51 116.47 L1.85 123.06" stroke="none" stroke-width="0" fill="#fff5f5"></path><path d="M1.54 1.73 C39.43 1.36, 78.99 -3.84, 198.57 0.71 M-1.17 0.48 C45.06 -0.09, 88.7 -1.11, 198.96 1.36 M203.07 -3.5 C201.09 28.56, 202.47 48.92, 202.78 118.26 M200.6 -1.6 C201.24 30.49, 199.29 64.47, 200.81 120.7 M201.89 119.62 C158.72 123.21, 110.7 122.24, 3.31 119.27 M198.3 119.74 C124.66 120.89, 51.07 120.4, 1.69 120.08 M-1.44 119.44 C0.78 82.53, -2.69 51.53, 1.18 -2.41 M0.44 122 C-3.03 75.04, -2.02 30.9, 0.88 1.98" stroke="#c92a2a" stroke-width="3" fill="none"></path></g><g transform="translate(260 200) rotate(0 90 50)"><text x="90" y="NaN" font-family="Virgil, Segoe UI Emoji" font-size="22px" fill="#c92a2a" text-anchor="middle" style="white-space: pre;" direction="ltr">效率陷阱</text></g><g stroke-linecap="round" transform="translate(10 130) rotate(0 80 50)"><path d="M95.99 0.64 C106.35 1.8, 118.03 7.29, 127.67 11.59 C137.31 15.89, 148.54 19.89, 153.83 26.42 C159.12 32.94, 159.37 43.18, 159.42 50.72 C159.47 58.26, 159.26 65.14, 154.11 71.66 C148.96 78.17, 137.56 85.56, 128.52 89.82 C119.47 94.07, 110.77 95.34, 99.84 97.17 C88.91 99, 74.41 102.26, 62.94 100.79 C51.47 99.32, 40.49 93.29, 31.03 88.34 C21.58 83.4, 11.36 77.71, 6.21 71.1 C1.06 64.49, -0.34 55.96, 0.13 48.66 C0.61 41.37, 3.84 33.39, 9.08 27.34 C14.32 21.28, 22.98 16.56, 31.56 12.34 C40.14 8.13, 47.3 3.63, 60.57 2.03 C73.84 0.44, 101.02 1.64, 111.17 2.75 C121.32 3.85, 121.91 7.78, 121.46 8.65 M23.05 14.49 C29.8 8.66, 39.2 5.01, 49.31 2.27 C59.41 -0.46, 71.82 -3.05, 83.69 -1.89 C95.56 -0.73, 109.87 5.43, 120.53 9.24 C131.2 13.05, 141.37 15.53, 147.68 20.97 C154 26.41, 157.36 35, 158.43 41.88 C159.51 48.75, 157.66 55.58, 154.14 62.23 C150.63 68.88, 145.16 75.73, 137.34 81.77 C129.52 87.81, 117.52 95.4, 107.22 98.47 C96.93 101.54, 86.25 100.75, 75.58 100.17 C64.92 99.6, 53.29 98.64, 43.21 95.04 C33.14 91.43, 22.2 84.85, 15.15 78.54 C8.09 72.22, 2.42 64.8, 0.9 57.15 C-0.61 49.51, 2.65 39.98, 6.05 32.66 C9.46 25.33, 18.48 15.87, 21.32 13.22 C24.15 10.58, 22.01 16.15, 23.08 16.78" stroke="none" stroke-width="0" fill="#e7f5ff"></path><path d="M116.52 3.97 C126.74 6.36, 136.63 14.52, 143.37 20.53 C150.11 26.54, 154.49 33.22, 156.97 40.04 C159.44 46.86, 160.82 54.22, 158.22 61.44 C155.63 68.65, 148.77 77.59, 141.39 83.33 C134.01 89.08, 124.52 93.34, 113.93 95.92 C103.34 98.5, 89.42 99.36, 77.84 98.81 C66.25 98.27, 54.91 95.74, 44.43 92.65 C33.94 89.57, 21.82 86.13, 14.91 80.32 C8.01 74.5, 4.86 64.73, 3 57.76 C1.13 50.78, 0.75 45.47, 3.74 38.49 C6.73 31.52, 13.37 21.76, 20.93 15.91 C28.49 10.06, 38.91 5.93, 49.09 3.39 C59.27 0.85, 65.97 -2.59, 82.02 0.66 C98.07 3.9, 132.96 15.26, 145.37 22.85 C157.79 30.44, 157.7 46.08, 156.5 46.2 M79.65 0.8 C90.97 0.33, 108.98 3.7, 119.63 7.14 C130.29 10.58, 137.14 16.36, 143.57 21.45 C149.99 26.54, 156.03 30.39, 158.16 37.68 C160.3 44.98, 159.31 57.4, 156.37 65.21 C153.44 73.01, 147.95 79.38, 140.56 84.51 C133.16 89.63, 122.95 93.46, 112.02 95.97 C101.09 98.47, 86.48 99.67, 74.98 99.55 C63.49 99.43, 52.48 98.48, 43.07 95.23 C33.66 91.98, 24.95 85.96, 18.5 80.07 C12.05 74.19, 7.1 66.64, 4.37 59.92 C1.64 53.19, -0.26 46.93, 2.13 39.72 C4.51 32.52, 11.2 22.26, 18.65 16.69 C26.1 11.11, 36.64 9.16, 46.85 6.27 C57.06 3.37, 73.97 0.04, 79.89 -0.69 C85.82 -1.42, 82.37 0.64, 82.41 1.91" stroke="#1864ab" stroke-width="2" fill="none"></path></g><g transform="translate(20 140) rotate(0 70 40)"><text x="70" y="NaN" font-family="Virgil, Segoe UI Emoji" font-size="16px" fill="#1864ab" text-anchor="middle" style="white-space: pre;" direction="ltr">效率思维</text></g><g transform="translate(30 175) rotate(0 0 0)"><text x="0" y="NaN" font-family="Virgil, Segoe UI Emoji" font-size="13px" fill="#1864ab" text-anchor="start" style="white-space: pre;" direction="ltr">把事做对</text></g><g stroke-linecap="round" transform="translate(530 130) rotate(0 80 50)"><path d="M95.99 0.64 C106.35 1.8, 118.03 7.29, 127.67 11.59 C137.31 15.89, 148.54 19.89, 153.83 26.42 C159.12 32.94, 159.37 43.18, 159.42 50.72 C159.47 58.26, 159.26 65.14, 154.11 71.66 C148.96 78.17, 137.56 85.56, 128.52 89.82 C119.47 94.07, 110.77 95.34, 99.84 97.17 C88.91 99, 74.41 102.26, 62.94 100.79 C51.47 99.32, 40.49 93.29, 31.03 88.34 C21.58 83.4, 11.36 77.71, 6.21 71.1 C1.06 64.49, -0.34 55.96, 0.13 48.66 C0.61 41.37, 3.84 33.39, 9.08 27.34 C14.32 21.28, 22.98 16.56, 31.56 12.34 C40.14 8.13, 47.3 3.63, 60.57 2.03 C73.84 0.44, 101.02 1.64, 111.17 2.75 C121.32 3.85, 121.91 7.78, 121.46 8.65 M23.05 14.49 C29.8 8.66, 39.2 5.01, 49.31 2.27 C59.41 -0.46, 71.82 -3.05, 83.69 -1.89 C95.56 -0.73, 109.87 5.43, 120.53 9.24 C131.2 13.05, 141.37 15.53, 147.68 20.97 C154 26.41, 157.36 35, 158.43 41.88 C159.51 48.75, 157.66 55.58, 154.14 62.23 C150.63 68.88, 145.16 75.73, 137.34 81.77 C129.52 87.81, 117.52 95.4, 107.22 98.47 C96.93 101.54, 86.25 100.75, 75.58 100.17 C64.92 99.6, 53.29 98.64, 43.21 95.04 C33.14 91.43, 22.2 84.85, 15.15 78.54 C8.09 72.22, 2.42 64.8, 0.9 57.15 C-0.61 49.51, 2.65 39.98, 6.05 32.66 C9.46 25.33, 18.48 15.87, 21.32 13.22 C24.15 10.58, 22.01 16.15, 23.08 16.78" stroke="none" stroke-width="0" fill="#ebfbee"></path><path d="M116.52 3.97 C126.74 6.36, 136.63 14.52, 143.37 20.53 C150.11 26.54, 154.49 33.22, 156.97 40.04 C159.44 46.86, 160.82 54.22, 158.22 61.44 C155.63 68.65, 148.77 77.59, 141.39 83.33 C134.01 89.08, 124.52 93.34, 113.93 95.92 C103.34 98.5, 89.42 99.36, 77.84 98.81 C66.25 98.27, 54.91 95.74, 44.43 92.65 C33.94 89.57, 21.82 86.13, 14.91 80.32 C8.01 74.5, 4.86 64.73, 3 57.76 C1.13 50.78, 0.75 45.47, 3.74 38.49 C6.73 31.52, 13.37 21.76, 20.93 15.91 C28.49 10.06, 38.91 5.93, 49.09 3.39 C59.27 0.85, 65.97 -2.59, 82.02 0.66 C98.07 3.9, 132.96 15.26, 145.37 22.85 C157.79 30.44, 157.7 46.08, 156.5 46.2 M79.65 0.8 C90.97 0.33, 108.98 3.7, 119.63 7.14 C130.29 10.58, 137.14 16.36, 143.57 21.45 C149.99 26.54, 156.03 30.39, 158.16 37.68 C160.3 44.98, 159.31 57.4, 156.37 65.21 C153.44 73.01, 147.95 79.38, 140.56 84.51 C133.16 89.63, 122.95 93.46, 112.02 95.97 C101.09 98.47, 86.48 99.67, 74.98 99.55 C63.49 99.43, 52.48 98.48, 43.07 95.23 C33.66 91.98, 24.95 85.96, 18.5 80.07 C12.05 74.19, 7.1 66.64, 4.37 59.92 C1.64 53.19, -0.26 46.93, 2.13 39.72 C4.51 32.52, 11.2 22.26, 18.65 16.69 C26.1 11.11, 36.64 9.16, 46.85 6.27 C57.06 3.37, 73.97 0.04, 79.89 -0.69 C85.82 -1.42, 82.37 0.64, 82.41 1.91" stroke="#2b8a3e" stroke-width="2" fill="none"></path></g><g transform="translate(540 140) rotate(0 70 40)"><text x="70" y="NaN" font-family="Virgil, Segoe UI Emoji" font-size="16px" fill="#2b8a3e" text-anchor="middle" style="white-space: pre;" direction="ltr">效果思维</text></g><g transform="translate(550 175) rotate(0 0 0)"><text x="0" y="NaN" font-family="Virgil, Segoe UI Emoji" font-size="13px" fill="#2b8a3e" text-anchor="start" style="white-space: pre;" direction="ltr">做对的事</text></g><g stroke-linecap="round"><g transform="translate(170 180) rotate(0 40 30)"><path d="M0.57 1.2 C14.59 11.51, 67.84 49.88, 81.35 59.55 M-2.57 -0.62 C11.46 10.35, 65.96 52.52, 79.84 62.94" stroke="#868e96" stroke-width="2" fill="none"></path></g></g><g stroke-linecap="round"><g transform="translate(450 250) rotate(0 40 -30)"><path d="M0.57 1.2 C14.59 -8.49, 67.84 -50.12, 81.35 -60.45 M-2.57 -0.62 C11.46 -9.65, 65.96 -47.48, 79.84 -57.06" stroke="#868e96" stroke-width="2" fill="none"></path></g></g><g stroke-linecap="round" transform="translate(230 10) rotate(0 120 30)"><path d="M-3.2 -1.16 L242.09 3.62 L240.51 56.47 L1.85 63.06" stroke="none" stroke-width="0" fill="#f3f0ff"></path><path d="M1.43 1.61 C47.47 1.13, 95.07 -3.69, 238.68 0.65 M-1.08 0.44 C53.86 -0.37, 106.39 -1.32, 239.03 1.25 M243.07 -3.5 C241.64 15.51, 243.03 22.82, 242.78 58.26 M240.6 -1.6 C240.86 14.38, 238.91 32.26, 240.81 60.7 M241.75 59.64 C189.96 63.64, 133.67 62.73, 3.06 59.33 M238.43 59.76 C149.63 60.9, 60.89 60.45, 1.56 60.07 M-1.44 59.44 C1.65 39.73, -1.81 25.94, 1.18 -2.41 M0.44 62 C-2.29 36.87, -1.28 14.55, 0.88 1.98" stroke="#862e9c" stroke-width="2" fill="none"></path></g><g transform="translate(240 20) rotate(0 110 20)"><text x="110" y="NaN" font-family="Virgil, Segoe UI Emoji" font-size="16px" fill="#862e9c" text-anchor="middle" style="white-space: pre;" direction="ltr">AI时代</text></g><g transform="translate(245 45) rotate(0 0 0)"><text x="0" y="NaN" font-family="Virgil, Segoe UI Emoji" font-size="13px" fill="#862e9c" text-anchor="start" style="white-space: pre;" direction="ltr">对的事定义快速变化</text></g><g stroke-linecap="round" transform="translate(150 370) rotate(0 200 40)"><path d="M-3.2 -1.16 L402.09 3.62 L400.51 76.47 L1.85 83.06" stroke="none" stroke-width="0" fill="#fff5f7"></path><path d="M0.97 1.09 C79.64 0.4, 159.37 -2.88, 399.1 0.44 M-0.74 0.3 C89.04 -1.03, 177.18 -1.68, 399.34 0.85 M403.07 -3.5 C401.46 19.86, 402.84 31.52, 402.78 78.26 M400.6 -1.6 C400.99 19.75, 399.03 43, 400.81 80.7 M401.19 79.76 C314.9 84.27, 225.55 83.65, 2.08 79.54 M398.93 79.84 C249.54 80.82, 100.17 80.51, 1.06 80.05 M-1.44 79.44 C1.36 54, -2.1 34.47, 1.18 -2.41 M0.44 82 C-2.54 49.59, -1.52 20, 0.88 1.98" stroke="#e64980" stroke-width="2" fill="none"></path></g><g transform="translate(160 380) rotate(0 190 30)"><text x="190" y="NaN" font-family="Virgil, Segoe UI Emoji" font-size="16px" fill="#e64980" text-anchor="middle" style="white-space: pre;" direction="ltr">效率提升300倍</text></g><g transform="translate(180 415) rotate(0 0 0)"><text x="0" y="NaN" font-family="Virgil, Segoe UI Emoji" font-size="14px" fill="#e64980" text-anchor="start" style="white-space: pre;" direction="ltr">不等于效果提升，而是风险被放大</text></g><g stroke-linecap="round"><g transform="translate(350 70) rotate(0 0 60)"><path d="M0.57 1.2 C1.26 21.51, 1.17 99.88, 1.35 119.55 M-2.57 -0.62 C-1.88 20.35, -0.7 102.52, -0.16 122.94" stroke="#868e96" stroke-width="1.5" fill="none"></path></g></g><g stroke-linecap="round"><g transform="translate(350 310) rotate(0 0 30)"><path d="M0.57 1.2 C1.26 11.51, 1.17 49.88, 1.35 59.55 M-2.57 -0.62 C-1.88 10.35, -0.7 52.52, -0.16 62.94" stroke="#868e96" stroke-width="1.5" fill="none"></path></g></g></svg>