<svg xmlns="http://www.w3.org/2000/svg" viewBox="0 0 800 480" style="font-family: 'Noto Serif CJK SC', serif; background: #fefefe;">
  <title>效率思维的陷阱</title>

  <rect width="800" height="480" fill="white"/>

  <!-- ============================================================ -->
  <!-- 左侧：效率思维 (把事做对) -->
  <!-- ============================================================ -->

  <text x="130" y="40" text-anchor="middle" font-size="13" font-weight="bold" fill="#1864ab">效率思维</text>
  <text x="130" y="62" text-anchor="middle" font-size="10" fill="#777">把事做对</text>

  <!-- 齿轮图标 -->
  <circle cx="130" cy="150" r="45" fill="#e7f5ff" stroke="#1864ab" stroke-width="2"/>
  <circle cx="130" cy="150" r="20" fill="#fff" stroke="#1864ab" stroke-width="2"/>
  <!-- 齿轮齿 -->
  <path d="M130 100 L125 115 L135 115 Z" fill="#1864ab"/>
  <path d="M130 200 L125 185 L135 185 Z" fill="#1864ab"/>
  <path d="M80 150 L95 145 L95 155 Z" fill="#1864ab"/>
  <path d="M180 150 L165 145 L165 155 Z" fill="#1864ab"/>
  <path d="M95 115 L107 127 L100 133 Z" fill="#1864ab"/>
  <path d="M165 185 L153 173 L160 167 Z" fill="#1864ab"/>
  <path d="M95 185 L107 173 L100 167 Z" fill="#1864ab"/>
  <path d="M165 115 L153 127 L160 133 Z" fill="#1864ab"/>

  <!-- 效率公式 -->
  <rect x="50" y="230" width="160" height="50" rx="6" fill="#e7f5ff" stroke="#1864ab" stroke-width="1.5"/>
  <text x="130" y="252" text-anchor="middle" font-size="10" fill="#1864ab">产出 ÷ 投入 = 效率</text>
  <text x="130" y="270" text-anchor="middle" font-size="10" fill="#666">更快、更多、更便宜</text>

  <!-- 特点 -->
  <line x1="30" y1="310" x2="230" y2="310" stroke="#e0e0e0" stroke-width="1"/>
  <circle cx="45" cy="335" r="5" fill="#1864ab"/>
  <text x="58" y="340" font-size="10" fill="#444">关注过程</text>
  <circle cx="45" cy="365" r="5" fill="#1864ab"/>
  <text x="58" y="370" font-size="10" fill="#444">执行精确</text>
  <circle cx="45" cy="395" r="5" fill="#1864ab"/>
  <text x="58" y="400" font-size="10" fill="#444">复制最佳实践</text>

  <!-- 箭头向右 -->
  <path d="M240 200 L320 200" fill="none" stroke="#868e96" stroke-width="2" stroke-dasharray="6,4"/>
  <polygon points="320,200 310,195 310,205" fill="#868e96"/>

  <!-- ============================================================ -->
  <!-- 中间：陷阱 -->
  <!-- ============================================================ -->

  <!-- 大陷阱 -->
  <ellipse cx="400" cy="220" rx="100" ry="80" fill="#fff5f5" stroke="#c92a2a" stroke-width="3"/>
  <text x="400" y="210" text-anchor="middle" font-size="14" font-weight="bold" fill="#c92a2a">效率陷阱</text>
  <text x="400" y="235" text-anchor="middle" font-size="10" fill="#c92a2a">做对了事</text>
  <text x="400" y="255" text-anchor="middle" font-size="10" fill="#c92a2a">但未必做对的事</text>

  <!-- 陷阱图案 (格纹) -->
  <path d="M330 280 L340 300 L320 300 Z" fill="#c92a2a" opacity="0.3"/>
  <path d="M360 290 L370 310 L350 310 Z" fill="#c92a2a" opacity="0.3"/>
  <path d="M390 295 L400 315 L380 315 Z" fill="#c92a2a" opacity="0.3"/>
  <path d="M420 290 L430 310 L410 310 Z" fill="#c92a2a" opacity="0.3"/>
  <path d="M450 280 L460 300 L440 300 Z" fill="#c92a2a" opacity="0.3"/>

  <!-- 人掉入陷阱 -->
  <circle cx="400" cy="180" r="12" fill="#e9ecef" stroke="#495057" stroke-width="1.5"/>
  <circle cx="396" cy="177" r="2" fill="#495057"/>
  <circle cx="404" cy="177" r="2" fill="#495057"/>
  <path d="M395 183 Q400 180 405 183" fill="none" stroke="#495057" stroke-width="1.5"/>

  <!-- ============================================================ -->
  <!-- 右侧：效果思维 (做对的事) -->
  <!-- ============================================================ -->

  <text x="670" y="40" text-anchor="middle" font-size="13" font-weight="bold" fill="#2b8a3e">效果思维</text>
  <text x="670" y="62" text-anchor="middle" font-size="10" fill="#777">做对的事</text>

  <!-- 靶心图标 -->
  <circle cx="670" cy="150" r="45" fill="#ebfbee" stroke="#2b8a3e" stroke-width="2"/>
  <circle cx="670" cy="150" r="35" fill="#fff" stroke="#2b8a3e" stroke-width="1.5"/>
  <circle cx="670" cy="150" r="25" fill="#fff" stroke="#2b8a3e" stroke-width="1.5"/>
  <circle cx="670" cy="150" r="15" fill="#fff" stroke="#2b8a3e" stroke-width="1.5"/>
  <circle cx="670" cy="150" r="5" fill="#2b8a3e"/>
  <!-- 箭头射中靶心 -->
  <line x1="720" y1="100" x2="675" y2="148" stroke="#c92a2a" stroke-width="2"/>
  <polygon points="670,150 678,145 675,155" fill="#c92a2a"/>

  <!-- 关键问题 -->
  <rect x="560" y="230" width="220" height="70" rx="6" fill="#ebfbee" stroke="#2b8a3e" stroke-width="1.5"/>
  <text x="670" y="255" text-anchor="middle" font-size="11" font-weight="bold" fill="#2b8a3e">关键问题</text>
  <text x="670" y="278" text-anchor="middle" font-size="10" fill="#333">什么是对的"事"？</text>
  <text x="670" y="295" text-anchor="middle" font-size="10" fill="#666">这是AI时代重新定义的核心问题</text>

  <!-- 特点 -->
  <line x1="540" y1="330" x2="800" y2="330" stroke="#e0e0e0" stroke-width="1"/>
  <circle cx="555" cy="355" r="5" fill="#2b8a3e"/>
  <text x="568" y="360" font-size="10" fill="#444">关注价值</text>
  <circle cx="555" cy="385" r="5" fill="#2b8a3e"/>
  <text x="568" y="390" font-size="10" fill="#444">持续重新定义目标</text>
  <circle cx="555" cy="415" r="5" fill="#2b8a3e"/>
  <text x="568" y="420" font-size="10" fill="#444">创造新方案</text>

  <!-- ============================================================ -->
  <!-- 底部：核心洞察 -->
  <!-- ============================================================ -->

  <rect x="100" y="450" width="600" height="28" rx="5" fill="#f5f5f5" stroke="#ddd" stroke-width="1"/>
  <text x="400" y="469" text-anchor="middle" font-size="11">
    <tspan fill="#1864ab" font-weight="bold">效率：</tspan>
    <tspan fill="#666">把事做对</tspan>
    <tspan dx="20" fill="#c92a2a" font-weight="bold">→</tspan>
    <tspan dx="10" fill="#2b8a3e" font-weight="bold">效果：</tspan>
    <tspan fill="#666">做对的事</tspan>
  </text>

</svg>