<svg version="1.1" xmlns="http://www.w3.org/2000/svg" viewBox="0 0 620 515" width="620" height="515">
  <!-- svg-source:excalidraw -->
  
  <defs>
    <style>
      @font-face {
        font-family: "Virgil";
        src: url("https://excalidraw.com/Virgil.woff2");
      }
      @font-face {
        font-family: "Cascadia";
        src: url("https://excalidraw.com/Cascadia.woff2");
      }
    </style>
  </defs>
  <rect x="0" y="0" width="620" height="515" fill="#ffffff"></rect><g transform="translate(190 10) rotate(0 0 0)"><text x="0" y="NaN" font-family="Virgil, Segoe UI Emoji" font-size="22px" fill="#2b8a3e" text-anchor="start" style="white-space: pre;" direction="ltr">韧性的三层含义</text></g><g stroke-linecap="round" transform="translate(10 355) rotate(0 300 40)"><path d="M-3.2 -1.16 L602.09 3.62 L600.51 76.47 L1.85 83.06" stroke="none" stroke-width="0" fill="#e7f5ff"></path><path d="M0.69 0.77 C119.75 -0.04, 239.56 -2.36, 599.37 0.31 M-0.52 0.21 C133.16 -1.42, 265.69 -1.88, 599.54 0.6 M603.07 -3.5 C601.46 19.86, 602.84 31.52, 602.78 78.26 M600.6 -1.6 C600.99 19.75, 599.03 43, 600.81 80.7 M600.84 79.83 C471.42 84.59, 339.85 84.16, 1.47 79.68 M599.25 79.89 C374.38 80.76, 149.54 80.54, 0.75 80.03 M-1.44 79.44 C1.36 54, -2.1 34.47, 1.18 -2.41 M0.44 82 C-2.54 49.59, -1.52 20, 0.88 1.98" stroke="#1864ab" stroke-width="2" fill="none"></path></g><g transform="translate(20 365) rotate(0 290 30)"><text x="290" y="NaN" font-family="Virgil, Segoe UI Emoji" font-size="18px" fill="#1864ab" text-anchor="middle" style="white-space: pre;" direction="ltr">效率</text></g><g transform="translate(90 410) rotate(0 0 0)"><text x="0" y="NaN" font-family="Virgil, Segoe UI Emoji" font-size="14px" fill="#1864ab" text-anchor="start" style="white-space: pre;" direction="ltr">做事的速度和质量</text></g><g stroke-linecap="round" transform="translate(60 235) rotate(0 250 40)"><path d="M-3.2 -1.16 L502.09 3.62 L500.51 76.47 L1.85 83.06" stroke="none" stroke-width="0" fill="#f3f0ff"></path><path d="M0.69 0.77 C99.75 0.12, 199.56 -2.19, 499.37 0.31 M-0.52 0.21 C111.03 -1.08, 221.42 -1.53, 499.54 0.6 M503.07 -3.5 C501.46 19.86, 502.84 31.52, 502.78 78.26 M500.6 -1.6 C500.99 19.75, 499.03 43, 500.81 80.7 M500.84 79.83 C392.99 83.8, 282.98 83.37, 1.47 79.68 M499.25 79.89 C311.97 80.67, 124.72 80.45, 0.75 80.03 M-1.44 79.44 C1.36 54, -2.1 34.47, 1.18 -2.41 M0.44 82 C-2.54 49.59, -1.52 20, 0.88 1.98" stroke="#862e9c" stroke-width="2" fill="none"></path></g><g transform="translate(70 245) rotate(0 240 30)"><text x="240" y="NaN" font-family="Virgil, Segoe UI Emoji" font-size="18px" fill="#862e9c" text-anchor="middle" style="white-space: pre;" direction="ltr">优化</text></g><g transform="translate(140 290) rotate(0 0 0)"><text x="0" y="NaN" font-family="Virgil, Segoe UI Emoji" font-size="14px" fill="#862e9c" text-anchor="start" style="white-space: pre;" direction="ltr">在给定条件下找最优解</text></g><g stroke-linecap="round" transform="translate(110 115) rotate(0 200 40)"><path d="M-3.2 -1.16 L402.09 3.62 L400.51 76.47 L1.85 83.06" stroke="none" stroke-width="0" fill="#fff5f5"></path><path d="M0.97 1.09 C79.64 0.4, 159.37 -2.88, 399.1 0.44 M-0.74 0.3 C89.04 -1.03, 177.18 -1.68, 399.34 0.85 M403.07 -3.5 C401.46 19.86, 402.84 31.52, 402.78 78.26 M400.6 -1.6 C400.99 19.75, 399.03 43, 400.81 80.7 M401.19 79.76 C314.9 84.27, 225.55 83.65, 2.08 79.54 M398.93 79.84 C249.54 80.82, 100.17 80.51, 1.06 80.05 M-1.44 79.44 C1.36 54, -2.1 34.47, 1.18 -2.41 M0.44 82 C-2.54 49.59, -1.52 20, 0.88 1.98" stroke="#c92a2a" stroke-width="3" fill="none"></path></g><g transform="translate(120 125) rotate(0 190 30)"><text x="190" y="NaN" font-family="Virgil, Segoe UI Emoji" font-size="18px" fill="#c92a2a" text-anchor="middle" style="white-space: pre;" direction="ltr">韧性</text></g><g transform="translate(170 170) rotate(0 0 0)"><text x="0" y="NaN" font-family="Virgil, Segoe UI Emoji" font-size="14px" fill="#c92a2a" text-anchor="start" style="white-space: pre;" direction="ltr">部分失效时继续运转</text></g><g stroke-linecap="round"><g transform="translate(560 375) rotate(0 0 -120)"><path d="M0.57 1.2 C1.26 -38.49, 1.17 -200.12, 1.35 -240.45 M-2.57 -0.62 C-1.88 -39.65, -0.7 -197.48, -0.16 -237.06" stroke="#e64980" stroke-width="3" fill="none"></path></g></g><g transform="translate(575 245) rotate(0 0 0)"><text x="0" y="NaN" font-family="Virgil, Segoe UI Emoji" font-size="12px" fill="#e64980" text-anchor="start" style="white-space: pre;" direction="ltr">优先级</text><text x="0" y="NaN" font-family="Virgil, Segoe UI Emoji" font-size="12px" fill="#e64980" text-anchor="start" style="white-space: pre;" direction="ltr">上升</text></g><g transform="translate(110 505) rotate(0 0 0)"><text x="0" y="NaN" font-family="Virgil, Segoe UI Emoji" font-size="13px" fill="#495057" text-anchor="start" style="white-space: pre;" direction="ltr">AI时代：核心基础设施失效时，影响范围和深度远超过去</text></g></svg>