<svg version="1.1" xmlns="http://www.w3.org/2000/svg" viewBox="0 0 700 440" width="700" height="440">
  <!-- svg-source:excalidraw -->
  
  <defs>
    <style>
      @font-face {
        font-family: "Virgil";
        src: url("https://excalidraw.com/Virgil.woff2");
      }
      @font-face {
        font-family: "Cascadia";
        src: url("https://excalidraw.com/Cascadia.woff2");
      }
    </style>
  </defs>
  <rect x="0" y="0" width="700" height="440" fill="#ffffff"></rect><g transform="translate(200 10) rotate(0 0 0)"><text x="0" y="NaN" font-family="Virgil, Segoe UI Emoji" font-size="22px" fill="#c92a2a" text-anchor="start" style="white-space: pre;" direction="ltr">控制逻辑的失效</text></g><g stroke-linecap="round" transform="translate(10 75) rotate(0 150 90)"><path d="M-3.2 -1.16 L302.09 3.62 L300.51 176.47 L1.85 183.06" stroke="none" stroke-width="0" fill="#f8f9fa"></path><path d="M1.26 1.41 C59.53 0.81, 119.18 -3.43, 298.84 0.58 M-0.95 0.39 C67.05 -0.71, 132.94 -1.54, 299.15 1.1 M303.07 -3.5 C300.54 41.61, 301.92 75.02, 302.78 178.26 M300.6 -1.6 C301.62 46.59, 299.66 96.68, 300.81 180.7 M301.54 179.69 C236.81 184.07, 168.13 183.27, 2.69 179.41 M298.62 179.79 C187.1 180.89, 75.62 180.49, 1.38 180.06 M-1.44 179.44 C-0.09 125.32, -3.56 77.11, 1.18 -2.41 M0.44 182 C-3.77 113.21, -2.75 47.24, 0.88 1.98" stroke="#868e96" stroke-width="2" fill="none"></path></g><g transform="translate(20 85) rotate(0 140 80)"><text x="140" y="NaN" font-family="Virgil, Segoe UI Emoji" font-size="16px" fill="#868e96" text-anchor="middle" style="white-space: pre;" direction="ltr">工业时代逻辑</text></g><g stroke-linecap="round" transform="translate(30 105) rotate(0 40 25)"><path d="M-3.2 -1.16 L82.09 3.62 L80.51 46.47 L1.85 53.06" stroke="none" stroke-width="0" fill="#e7f5ff"></path><path d="M1.71 1.93 C15.36 2, 30.88 -3.78, 78.41 0.78 M-1.3 0.53 C18.59 0.94, 35.59 -0.2, 78.84 1.51 M83.07 -3.5 C81.74 13.34, 83.12 18.47, 82.78 48.26 M80.6 -1.6 C80.8 11.7, 78.85 26.89, 80.81 50.7 M82.11 49.57 C64.81 51.2, 42.13 50.11, 3.67 49.19 M78.11 49.71 C49.75 50.71, 21.45 50.17, 1.88 50.08 M-1.44 49.44 C1.8 32.6, -1.67 21.68, 1.18 -2.41 M0.44 52 C-2.17 30.5, -1.15 11.82, 0.88 1.98" stroke="#1864ab" stroke-width="1" fill="none"></path></g><g transform="translate(40 115) rotate(0 30 15)"><text x="30" y="NaN" font-family="Virgil, Segoe UI Emoji" font-size="14px" fill="#1864ab" text-anchor="middle" style="white-space: pre;" direction="ltr">输入</text></g><g stroke-linecap="round"><g transform="translate(115 130) rotate(0 20 0)"><path d="M0.57 1.2 C7.93 1.51, 34.51 -0.12, 41.35 -0.45 M-2.57 -0.62 C4.79 0.35, 32.63 2.52, 39.84 2.94" stroke="#868e96" stroke-width="2" fill="none"></path></g></g><g stroke-linecap="round" transform="translate(160 105) rotate(0 40 25)"><path d="M-3.2 -1.16 L82.09 3.62 L80.51 46.47 L1.85 53.06" stroke="none" stroke-width="0" fill="#f3f0ff"></path><path d="M1.71 1.93 C15.36 2, 30.88 -3.78, 78.41 0.78 M-1.3 0.53 C18.59 0.94, 35.59 -0.2, 78.84 1.51 M83.07 -3.5 C81.74 13.34, 83.12 18.47, 82.78 48.26 M80.6 -1.6 C80.8 11.7, 78.85 26.89, 80.81 50.7 M82.11 49.57 C64.81 51.2, 42.13 50.11, 3.67 49.19 M78.11 49.71 C49.75 50.71, 21.45 50.17, 1.88 50.08 M-1.44 49.44 C1.8 32.6, -1.67 21.68, 1.18 -2.41 M0.44 52 C-2.17 30.5, -1.15 11.82, 0.88 1.98" stroke="#862e9c" stroke-width="1" fill="none"></path></g><g transform="translate(170 115) rotate(0 30 15)"><text x="30" y="NaN" font-family="Virgil, Segoe UI Emoji" font-size="14px" fill="#862e9c" text-anchor="middle" style="white-space: pre;" direction="ltr">过程</text></g><g stroke-linecap="round"><g transform="translate(245 130) rotate(0 20 0)"><path d="M0.57 1.2 C7.93 1.51, 34.51 -0.12, 41.35 -0.45 M-2.57 -0.62 C4.79 0.35, 32.63 2.52, 39.84 2.94" stroke="#868e96" stroke-width="2" fill="none"></path></g></g><g stroke-linecap="round" transform="translate(290 105) rotate(0 40 25)"><path d="M-3.2 -1.16 L82.09 3.62 L80.51 46.47 L1.85 53.06" stroke="none" stroke-width="0" fill="#ebfbee"></path><path d="M1.71 1.93 C15.36 2, 30.88 -3.78, 78.41 0.78 M-1.3 0.53 C18.59 0.94, 35.59 -0.2, 78.84 1.51 M83.07 -3.5 C81.74 13.34, 83.12 18.47, 82.78 48.26 M80.6 -1.6 C80.8 11.7, 78.85 26.89, 80.81 50.7 M82.11 49.57 C64.81 51.2, 42.13 50.11, 3.67 49.19 M78.11 49.71 C49.75 50.71, 21.45 50.17, 1.88 50.08 M-1.44 49.44 C1.8 32.6, -1.67 21.68, 1.18 -2.41 M0.44 52 C-2.17 30.5, -1.15 11.82, 0.88 1.98" stroke="#2b8a3e" stroke-width="1" fill="none"></path></g><g transform="translate(300 115) rotate(0 30 15)"><text x="30" y="NaN" font-family="Virgil, Segoe UI Emoji" font-size="14px" fill="#2b8a3e" text-anchor="middle" style="white-space: pre;" direction="ltr">输出</text></g><g transform="translate(50 225) rotate(0 0 0)"><text x="0" y="NaN" font-family="Virgil, Segoe UI Emoji" font-size="13px" fill="#868e96" text-anchor="start" style="white-space: pre;" direction="ltr">可控输入 → 可预测输出</text></g><g stroke-linecap="round"><g transform="translate(30 85) rotate(0 140 85)"><path d="M0.57 1.2 C47.93 29.85, 234.51 141.55, 281.35 169.55 M-2.57 -0.62 C44.79 28.68, 232.63 144.19, 279.84 172.94" stroke="#c92a2a" stroke-width="3" fill="none"></path></g></g><g stroke-linecap="round" transform="translate(390 75) rotate(0 150 90)"><path d="M-3.2 -1.16 L302.09 3.62 L300.51 176.47 L1.85 183.06" stroke="none" stroke-width="0" fill="#ebfbee"></path><path d="M1.26 1.41 C59.53 0.81, 119.18 -3.43, 298.84 0.58 M-0.95 0.39 C67.05 -0.71, 132.94 -1.54, 299.15 1.1 M303.07 -3.5 C300.54 41.61, 301.92 75.02, 302.78 178.26 M300.6 -1.6 C301.62 46.59, 299.66 96.68, 300.81 180.7 M301.54 179.69 C236.81 184.07, 168.13 183.27, 2.69 179.41 M298.62 179.79 C187.1 180.89, 75.62 180.49, 1.38 180.06 M-1.44 179.44 C-0.09 125.32, -3.56 77.11, 1.18 -2.41 M0.44 182 C-3.77 113.21, -2.75 47.24, 0.88 1.98" stroke="#2b8a3e" stroke-width="2" fill="none"></path></g><g transform="translate(400 85) rotate(0 140 80)"><text x="140" y="NaN" font-family="Virgil, Segoe UI Emoji" font-size="16px" fill="#2b8a3e" text-anchor="middle" style="white-space: pre;" direction="ltr">AI时代逻辑</text></g><g stroke-linecap="round" transform="translate(410 105) rotate(0 30 20)"><path d="M-3.2 -1.16 L62.09 3.62 L60.51 36.47 L1.85 43.06" stroke="none" stroke-width="0" fill="#fff5f7"></path><path d="M1.71 1.93 C11.36 2.08, 22.88 -3.7, 58.41 0.78 M-1.3 0.53 C14.16 1.11, 26.74 -0.03, 58.84 1.51 M63.07 -3.5 C61.83 11.16, 63.21 14.12, 62.78 38.26 M60.6 -1.6 C60.74 9.02, 58.78 21.53, 60.81 40.7 M62.11 39.57 C49.12 40.8, 30.75 39.71, 3.67 39.19 M58.11 39.71 C37.27 40.66, 16.48 40.12, 1.88 40.08 M-1.44 39.44 C1.94 25.47, -1.52 17.42, 1.18 -2.41 M0.44 42 C-2.04 24.14, -1.03 9.1, 0.88 1.98" stroke="#e64980" stroke-width="1" fill="none"></path></g><g transform="translate(420 115) rotate(0 20 10)"><text x="20" y="NaN" font-family="Virgil, Segoe UI Emoji" font-size="11px" fill="#e64980" text-anchor="middle" style="white-space: pre;" direction="ltr">数据1</text></g><g stroke-linecap="round" transform="translate(480 105) rotate(0 30 20)"><path d="M-3.2 -1.16 L62.09 3.62 L60.51 36.47 L1.85 43.06" stroke="none" stroke-width="0" fill="#fff5f7"></path><path d="M1.71 1.93 C11.36 2.08, 22.88 -3.7, 58.41 0.78 M-1.3 0.53 C14.16 1.11, 26.74 -0.03, 58.84 1.51 M63.07 -3.5 C61.83 11.16, 63.21 14.12, 62.78 38.26 M60.6 -1.6 C60.74 9.02, 58.78 21.53, 60.81 40.7 M62.11 39.57 C49.12 40.8, 30.75 39.71, 3.67 39.19 M58.11 39.71 C37.27 40.66, 16.48 40.12, 1.88 40.08 M-1.44 39.44 C1.94 25.47, -1.52 17.42, 1.18 -2.41 M0.44 42 C-2.04 24.14, -1.03 9.1, 0.88 1.98" stroke="#e64980" stroke-width="1" fill="none"></path></g><g transform="translate(490 115) rotate(0 20 10)"><text x="20" y="NaN" font-family="Virgil, Segoe UI Emoji" font-size="11px" fill="#e64980" text-anchor="middle" style="white-space: pre;" direction="ltr">数据2</text></g><g stroke-linecap="round" transform="translate(550 105) rotate(0 30 20)"><path d="M-3.2 -1.16 L62.09 3.62 L60.51 36.47 L1.85 43.06" stroke="none" stroke-width="0" fill="#fff5f7"></path><path d="M1.71 1.93 C11.36 2.08, 22.88 -3.7, 58.41 0.78 M-1.3 0.53 C14.16 1.11, 26.74 -0.03, 58.84 1.51 M63.07 -3.5 C61.83 11.16, 63.21 14.12, 62.78 38.26 M60.6 -1.6 C60.74 9.02, 58.78 21.53, 60.81 40.7 M62.11 39.57 C49.12 40.8, 30.75 39.71, 3.67 39.19 M58.11 39.71 C37.27 40.66, 16.48 40.12, 1.88 40.08 M-1.44 39.44 C1.94 25.47, -1.52 17.42, 1.18 -2.41 M0.44 42 C-2.04 24.14, -1.03 9.1, 0.88 1.98" stroke="#e64980" stroke-width="1" fill="none"></path></g><g transform="translate(560 115) rotate(0 20 10)"><text x="20" y="NaN" font-family="Virgil, Segoe UI Emoji" font-size="11px" fill="#e64980" text-anchor="middle" style="white-space: pre;" direction="ltr">数据3</text></g><g transform="translate(450 165) rotate(0 0 0)"><text x="0" y="NaN" font-family="Virgil, Segoe UI Emoji" font-size="24px" fill="#e64980" text-anchor="start" style="white-space: pre;" direction="ltr">???</text></g><g stroke-linecap="round" transform="translate(470 185) rotate(0 70 30)"><path d="M22.16 7.14 C29.75 3.71, 43.59 3.01, 54.6 2.09 C65.6 1.18, 76.88 0.7, 88.2 1.63 C99.52 2.56, 114.45 4.24, 122.53 7.69 C130.61 11.14, 134.53 17.05, 136.68 22.31 C138.82 27.57, 138.12 34.63, 135.41 39.26 C132.7 43.88, 128.63 46.57, 120.41 50.06 C112.19 53.55, 97.46 58.68, 86.1 60.18 C74.74 61.68, 63.66 60.48, 52.26 59.06 C40.86 57.64, 25.82 55.59, 17.7 51.68 C9.58 47.78, 5.99 40.32, 3.55 35.64 C1.1 30.96, -5.9 29.6, 3.02 23.6 C11.94 17.59, 42.02 3.24, 57.08 -0.39 C72.14 -4.02, 93.23 1.42, 93.4 1.79 M116.34 5.15 C126.03 7.64, 133.06 16.07, 136.61 21.1 C140.17 26.14, 139.67 30.34, 137.66 35.35 C135.65 40.35, 131.83 47.74, 124.56 51.12 C117.3 54.49, 105.48 54.15, 94.08 55.61 C82.68 57.07, 67.27 60.58, 56.17 59.89 C45.08 59.2, 36.3 54.9, 27.5 51.46 C18.7 48.02, 8.13 43.97, 3.4 39.24 C-1.34 34.51, -3.14 27.33, -0.89 23.06 C1.35 18.79, 8.84 17.24, 16.87 13.61 C24.9 9.98, 36.61 3.54, 47.28 1.28 C57.95 -0.99, 70.11 -0.54, 80.9 0.01 C91.7 0.56, 106.88 3.72, 112.06 4.6 C117.24 5.47, 112.73 4.17, 111.99 5.27" stroke="none" stroke-width="0" fill="#f3f0ff"></path><path d="M101.88 1.69 C112.1 3.38, 122.24 9.89, 128.32 14.32 C134.4 18.76, 137.6 23.58, 138.37 28.29 C139.13 33.01, 137.95 37.95, 132.89 42.61 C127.83 47.26, 117.75 53.29, 108.02 56.21 C98.3 59.14, 86.21 60.28, 74.54 60.15 C62.88 60.02, 48.4 58.04, 38.04 55.42 C27.68 52.8, 18.88 48.37, 12.39 44.42 C5.91 40.47, -0.38 36.72, -0.86 31.71 C-1.34 26.69, 3.77 18.65, 9.51 14.35 C15.25 10.04, 23.71 8.56, 33.6 5.9 C43.5 3.24, 52.37 -3.07, 68.88 -1.61 C85.38 -0.16, 121.18 8.86, 132.66 14.62 C144.14 20.38, 139.2 32.47, 137.75 32.96 M17.62 9.17 C24.7 6.06, 41 3.43, 52.17 2.19 C63.34 0.95, 73.05 0.39, 84.65 1.7 C96.25 3.01, 113.04 6.46, 121.77 10.07 C130.51 13.69, 134.4 19.25, 137.04 23.38 C139.67 27.51, 140.56 29.79, 137.57 34.84 C134.58 39.88, 127.26 49.29, 119.07 53.67 C110.89 58.06, 99.61 60.19, 88.45 61.14 C77.29 62.1, 63.79 61.1, 52.11 59.43 C40.43 57.75, 26.65 54.49, 18.36 51.07 C10.08 47.66, 4.69 43.7, 2.38 38.96 C0.07 34.21, 1.15 27.57, 4.53 22.62 C7.9 17.66, 19.99 11.03, 22.64 9.21 C25.29 7.39, 20.09 11.53, 20.43 11.68" stroke="#862e9c" stroke-width="2" fill="none"></path></g><g transform="translate(480 195) rotate(0 60 20)"><text x="60" y="NaN" font-family="Virgil, Segoe UI Emoji" font-size="18px" fill="#862e9c" text-anchor="middle" style="white-space: pre;" direction="ltr">AI</text></g><g transform="translate(410 265) rotate(0 0 0)"><text x="0" y="NaN" font-family="Virgil, Segoe UI Emoji" font-size="13px" fill="#2b8a3e" text-anchor="start" style="white-space: pre;" direction="ltr">输入不可控 → 输出不可预测</text></g><g transform="translate(100 355) rotate(0 0 0)"><text x="0" y="NaN" font-family="Virgil, Segoe UI Emoji" font-size="14px" fill="#495057" text-anchor="start" style="white-space: pre;" direction="ltr">道可道，非常道</text></g><g transform="translate(70 395) rotate(0 0 0)"><text x="0" y="NaN" font-family="Virgil, Segoe UI Emoji" font-size="13px" fill="#868e96" text-anchor="start" style="white-space: pre;" direction="ltr">控制得了格式，控制不了语义</text></g><g transform="translate(70 430) rotate(0 0 0)"><text x="0" y="NaN" font-family="Virgil, Segoe UI Emoji" font-size="13px" fill="#868e96" text-anchor="start" style="white-space: pre;" direction="ltr">控制得了结构，控制不了意图</text></g></svg>