<svg version="1.1" xmlns="http://www.w3.org/2000/svg" viewBox="0 0 630 475" width="630" height="475">
  <!-- svg-source:excalidraw -->
  
  <defs>
    <style>
      @font-face {
        font-family: "Virgil";
        src: url("https://excalidraw.com/Virgil.woff2");
      }
      @font-face {
        font-family: "Cascadia";
        src: url("https://excalidraw.com/Cascadia.woff2");
      }
    </style>
  </defs>
  <rect x="0" y="0" width="630" height="475" fill="#ffffff"></rect><g transform="translate(180 10) rotate(0 0 0)"><text x="0" y="NaN" font-family="Virgil, Segoe UI Emoji" font-size="22px" fill="#1864ab" text-anchor="start" style="white-space: pre;" direction="ltr">质量的五个决定点</text></g><g stroke-linecap="round" transform="translate(10 75) rotate(0 65 40)"><path d="M-3.2 -1.16 L132.09 3.62 L130.51 76.47 L1.85 83.06" stroke="none" stroke-width="0" fill="#e7f5ff"></path><path d="M1.71 1.93 C25.36 1.8, 50.88 -3.99, 128.41 0.78 M-1.3 0.53 C29.65 0.5, 57.72 -0.63, 128.84 1.51 M133.07 -3.5 C131.46 19.86, 132.84 31.52, 132.78 78.26 M130.6 -1.6 C130.99 19.75, 129.03 43, 130.81 80.7 M132.11 79.57 C104.02 82.19, 70.56 81.1, 3.67 79.19 M128.11 79.71 C80.96 80.83, 33.85 80.28, 1.88 80.08 M-1.44 79.44 C1.36 54, -2.1 34.47, 1.18 -2.41 M0.44 82 C-2.54 49.59, -1.52 20, 0.88 1.98" stroke="#1864ab" stroke-width="2" fill="none"></path></g><g transform="translate(20 85) rotate(0 55 30)"><text x="55" y="NaN" font-family="Virgil, Segoe UI Emoji" font-size="16px" fill="#1864ab" text-anchor="middle" style="white-space: pre;" direction="ltr">1. 设计</text></g><g transform="translate(25 130) rotate(0 0 0)"><text x="0" y="NaN" font-family="Virgil, Segoe UI Emoji" font-size="12px" fill="#1864ab" text-anchor="start" style="white-space: pre;" direction="ltr">模型选择架构</text></g><g stroke-linecap="round" transform="translate(170 75) rotate(0 65 40)"><path d="M-3.2 -1.16 L132.09 3.62 L130.51 76.47 L1.85 83.06" stroke="none" stroke-width="0" fill="#f3f0ff"></path><path d="M1.71 1.93 C25.36 1.8, 50.88 -3.99, 128.41 0.78 M-1.3 0.53 C29.65 0.5, 57.72 -0.63, 128.84 1.51 M133.07 -3.5 C131.46 19.86, 132.84 31.52, 132.78 78.26 M130.6 -1.6 C130.99 19.75, 129.03 43, 130.81 80.7 M132.11 79.57 C104.02 82.19, 70.56 81.1, 3.67 79.19 M128.11 79.71 C80.96 80.83, 33.85 80.28, 1.88 80.08 M-1.44 79.44 C1.36 54, -2.1 34.47, 1.18 -2.41 M0.44 82 C-2.54 49.59, -1.52 20, 0.88 1.98" stroke="#862e9c" stroke-width="2" fill="none"></path></g><g transform="translate(180 85) rotate(0 55 30)"><text x="55" y="NaN" font-family="Virgil, Segoe UI Emoji" font-size="16px" fill="#862e9c" text-anchor="middle" style="white-space: pre;" direction="ltr">2. 数据</text></g><g transform="translate(185 130) rotate(0 0 0)"><text x="0" y="NaN" font-family="Virgil, Segoe UI Emoji" font-size="12px" fill="#862e9c" text-anchor="start" style="white-space: pre;" direction="ltr">训练数据质量</text></g><g stroke-linecap="round" transform="translate(330 75) rotate(0 65 40)"><path d="M-3.2 -1.16 L132.09 3.62 L130.51 76.47 L1.85 83.06" stroke="none" stroke-width="0" fill="#ebfbee"></path><path d="M1.71 1.93 C25.36 1.8, 50.88 -3.99, 128.41 0.78 M-1.3 0.53 C29.65 0.5, 57.72 -0.63, 128.84 1.51 M133.07 -3.5 C131.46 19.86, 132.84 31.52, 132.78 78.26 M130.6 -1.6 C130.99 19.75, 129.03 43, 130.81 80.7 M132.11 79.57 C104.02 82.19, 70.56 81.1, 3.67 79.19 M128.11 79.71 C80.96 80.83, 33.85 80.28, 1.88 80.08 M-1.44 79.44 C1.36 54, -2.1 34.47, 1.18 -2.41 M0.44 82 C-2.54 49.59, -1.52 20, 0.88 1.98" stroke="#2b8a3e" stroke-width="2" fill="none"></path></g><g transform="translate(340 85) rotate(0 55 30)"><text x="55" y="NaN" font-family="Virgil, Segoe UI Emoji" font-size="16px" fill="#2b8a3e" text-anchor="middle" style="white-space: pre;" direction="ltr">3. 提示词</text></g><g transform="translate(345 130) rotate(0 0 0)"><text x="0" y="NaN" font-family="Virgil, Segoe UI Emoji" font-size="12px" fill="#2b8a3e" text-anchor="start" style="white-space: pre;" direction="ltr">指令设计质量</text></g><g stroke-linecap="round" transform="translate(490 75) rotate(0 65 40)"><path d="M-3.2 -1.16 L132.09 3.62 L130.51 76.47 L1.85 83.06" stroke="none" stroke-width="0" fill="#fff9db"></path><path d="M1.71 1.93 C25.36 1.8, 50.88 -3.99, 128.41 0.78 M-1.3 0.53 C29.65 0.5, 57.72 -0.63, 128.84 1.51 M133.07 -3.5 C131.46 19.86, 132.84 31.52, 132.78 78.26 M130.6 -1.6 C130.99 19.75, 129.03 43, 130.81 80.7 M132.11 79.57 C104.02 82.19, 70.56 81.1, 3.67 79.19 M128.11 79.71 C80.96 80.83, 33.85 80.28, 1.88 80.08 M-1.44 79.44 C1.36 54, -2.1 34.47, 1.18 -2.41 M0.44 82 C-2.54 49.59, -1.52 20, 0.88 1.98" stroke="#d77a00" stroke-width="2" fill="none"></path></g><g transform="translate(500 85) rotate(0 55 30)"><text x="55" y="NaN" font-family="Virgil, Segoe UI Emoji" font-size="16px" fill="#d77a00" text-anchor="middle" style="white-space: pre;" direction="ltr">4. 执行</text></g><g transform="translate(505 130) rotate(0 0 0)"><text x="0" y="NaN" font-family="Virgil, Segoe UI Emoji" font-size="12px" fill="#d77a00" text-anchor="start" style="white-space: pre;" direction="ltr">推理过程监控</text></g><g stroke-linecap="round"><g transform="translate(140 115) rotate(0 15 0)"><path d="M0.57 1.2 C6.26 1.51, 26.17 -0.12, 31.35 -0.45 M-2.57 -0.62 C3.12 0.35, 24.3 2.52, 29.84 2.94" stroke="#868e96" stroke-width="2" fill="none"></path></g></g><g stroke-linecap="round"><g transform="translate(300 115) rotate(0 15 0)"><path d="M0.57 1.2 C6.26 1.51, 26.17 -0.12, 31.35 -0.45 M-2.57 -0.62 C3.12 0.35, 24.3 2.52, 29.84 2.94" stroke="#868e96" stroke-width="2" fill="none"></path></g></g><g stroke-linecap="round"><g transform="translate(460 115) rotate(0 15 0)"><path d="M0.57 1.2 C6.26 1.51, 26.17 -0.12, 31.35 -0.45 M-2.57 -0.62 C3.12 0.35, 24.3 2.52, 29.84 2.94" stroke="#868e96" stroke-width="2" fill="none"></path></g></g><g stroke-linecap="round" transform="translate(240 255) rotate(0 90 40)"><path d="M-3.2 -1.16 L182.09 3.62 L180.51 76.47 L1.85 83.06" stroke="none" stroke-width="0" fill="#fff5f7"></path><path d="M1.71 1.93 C35.36 1.6, 70.88 -4.19, 178.41 0.78 M-1.3 0.53 C40.72 0.07, 79.86 -1.07, 178.84 1.51 M183.07 -3.5 C181.46 19.86, 182.84 31.52, 182.78 78.26 M180.6 -1.6 C180.99 19.75, 179.03 43, 180.81 80.7 M182.11 79.57 C143.24 83.18, 98.99 82.09, 3.67 79.19 M178.11 79.71 C112.16 80.94, 46.26 80.4, 1.88 80.08 M-1.44 79.44 C1.36 54, -2.1 34.47, 1.18 -2.41 M0.44 82 C-2.54 49.59, -1.52 20, 0.88 1.98" stroke="#e64980" stroke-width="2" fill="none"></path></g><g transform="translate(250 265) rotate(0 80 30)"><text x="80" y="NaN" font-family="Virgil, Segoe UI Emoji" font-size="16px" fill="#e64980" text-anchor="middle" style="white-space: pre;" direction="ltr">5. 反馈</text></g><g transform="translate(260 310) rotate(0 0 0)"><text x="0" y="NaN" font-family="Virgil, Segoe UI Emoji" font-size="12px" fill="#e64980" text-anchor="start" style="white-space: pre;" direction="ltr">持续优化闭环</text></g><g stroke-linecap="round"><g transform="translate(75 155) rotate(0 40 50)"><path d="M0.57 1.2 C14.59 18.18, 67.84 83.22, 81.35 99.55 M-2.57 -0.62 C11.46 17.01, 65.96 85.85, 79.84 102.94" stroke="#868e96" stroke-width="1.5" fill="none"></path></g></g><g stroke-linecap="round"><g transform="translate(235 155) rotate(0 20 50)"><path d="M0.57 1.2 C7.93 18.18, 34.51 83.22, 41.35 99.55 M-2.57 -0.62 C4.79 17.01, 32.63 85.85, 39.84 102.94" stroke="#868e96" stroke-width="1.5" fill="none"></path></g></g><g stroke-linecap="round"><g transform="translate(395 155) rotate(0 -15 50)"><path d="M0.57 1.2 C-3.74 18.18, -23.83 83.22, -28.65 99.55 M-2.57 -0.62 C-6.88 17.01, -25.7 85.85, -30.16 102.94" stroke="#868e96" stroke-width="1.5" fill="none"></path></g></g><g stroke-linecap="round"><g transform="translate(555 155) rotate(0 -55 50)"><path d="M0.57 1.2 C-17.07 18.18, -90.49 83.22, -108.65 99.55 M-2.57 -0.62 C-20.21 17.01, -92.37 85.85, -110.16 102.94" stroke="#868e96" stroke-width="1.5" fill="none"></path></g></g><g transform="translate(80 425) rotate(0 0 0)"><text x="0" y="NaN" font-family="Virgil, Segoe UI Emoji" font-size="14px" fill="#495057" text-anchor="start" style="white-space: pre;" direction="ltr">质量不是检验出来的，是构建出来的</text></g><g transform="translate(80 465) rotate(0 0 0)"><text x="0" y="NaN" font-family="Virgil, Segoe UI Emoji" font-size="12px" fill="#868e96" text-anchor="start" style="white-space: pre;" direction="ltr">—— 戴明</text></g></svg>