<svg version="1.1" xmlns="http://www.w3.org/2000/svg" viewBox="0 0 700 445" width="700" height="445">
  <!-- svg-source:excalidraw -->
  
  <defs>
    <style>
      @font-face {
        font-family: "Virgil";
        src: url("https://excalidraw.com/Virgil.woff2");
      }
      @font-face {
        font-family: "Cascadia";
        src: url("https://excalidraw.com/Cascadia.woff2");
      }
    </style>
  </defs>
  <rect x="0" y="0" width="700" height="445" fill="#ffffff"></rect><g transform="translate(230 10) rotate(0 0 0)"><text x="0" y="NaN" font-family="Virgil, Segoe UI Emoji" font-size="22px" fill="#1864ab" text-anchor="start" style="white-space: pre;" direction="ltr">人机分工决策框架</text></g><g stroke-linecap="round" transform="translate(10 65) rotate(0 160 140)"><path d="M-3.2 -1.16 L322.09 3.62 L320.51 276.47 L1.85 283.06" stroke="none" stroke-width="0" fill="#e7f5ff"></path><path d="M1.2 1.35 C63.55 0.72, 127.22 -3.33, 318.89 0.55 M-0.91 0.37 C71.45 -0.79, 141.79 -1.59, 319.19 1.05 M322.36 -2.68 C319.7 62.79, 320.76 119.29, 322.13 278.67 M320.46 -1.23 C321.72 73.83, 320.23 150.34, 320.62 280.54 M321.47 279.7 C252.43 284.16, 179.61 283.4, 2.57 279.44 M318.68 279.8 C199.58 280.88, 80.53 280.5, 1.31 280.06 M-1.1 279.57 C-1.18 197.35, -3.84 119.66, 0.91 -1.85 M0.33 281.53 C-3.83 177.14, -3.05 74.91, 0.68 1.51" stroke="#1864ab" stroke-width="2" fill="none"></path></g><g transform="translate(20 75) rotate(0 150 130)"><text x="150" y="NaN" font-family="Virgil, Segoe UI Emoji" font-size="18px" fill="#1864ab" text-anchor="middle" style="white-space: pre;" direction="ltr">AI 擅长</text></g><g transform="translate(30 115) rotate(0 0 0)"><text x="0" y="NaN" font-family="Virgil, Segoe UI Emoji" font-size="14px" fill="#1864ab" text-anchor="start" style="white-space: pre;" direction="ltr">模式识别</text></g><g transform="translate(30 140) rotate(0 0 0)"><text x="0" y="NaN" font-family="Virgil, Segoe UI Emoji" font-size="12px" fill="#868e96" text-anchor="start" style="white-space: pre;" direction="ltr">海量数据中找规律</text></g><g transform="translate(30 175) rotate(0 0 0)"><text x="0" y="NaN" font-family="Virgil, Segoe UI Emoji" font-size="14px" fill="#1864ab" text-anchor="start" style="white-space: pre;" direction="ltr">速度与规模</text></g><g transform="translate(30 200) rotate(0 0 0)"><text x="0" y="NaN" font-family="Virgil, Segoe UI Emoji" font-size="12px" fill="#868e96" text-anchor="start" style="white-space: pre;" direction="ltr">快速处理大量重复决策</text></g><g transform="translate(30 235) rotate(0 0 0)"><text x="0" y="NaN" font-family="Virgil, Segoe UI Emoji" font-size="14px" fill="#1864ab" text-anchor="start" style="white-space: pre;" direction="ltr">一致性</text></g><g transform="translate(30 260) rotate(0 0 0)"><text x="0" y="NaN" font-family="Virgil, Segoe UI Emoji" font-size="12px" fill="#868e96" text-anchor="start" style="white-space: pre;" direction="ltr">不受情绪影响</text></g><g transform="translate(30 295) rotate(0 0 0)"><text x="0" y="NaN" font-family="Virgil, Segoe UI Emoji" font-size="14px" fill="#1864ab" text-anchor="start" style="white-space: pre;" direction="ltr">已知标准</text></g><g transform="translate(30 320) rotate(0 0 0)"><text x="0" y="NaN" font-family="Virgil, Segoe UI Emoji" font-size="12px" fill="#868e96" text-anchor="start" style="white-space: pre;" direction="ltr">清晰指标的重复性决策</text></g><g stroke-linecap="round" transform="translate(370 65) rotate(0 160 140)"><path d="M-3.2 -1.16 L322.09 3.62 L320.51 276.47 L1.85 283.06" stroke="none" stroke-width="0" fill="#ebfbee"></path><path d="M1.2 1.35 C63.55 0.72, 127.22 -3.33, 318.89 0.55 M-0.91 0.37 C71.45 -0.79, 141.79 -1.59, 319.19 1.05 M322.36 -2.68 C319.7 62.79, 320.76 119.29, 322.13 278.67 M320.46 -1.23 C321.72 73.83, 320.23 150.34, 320.62 280.54 M321.47 279.7 C252.43 284.16, 179.61 283.4, 2.57 279.44 M318.68 279.8 C199.58 280.88, 80.53 280.5, 1.31 280.06 M-1.1 279.57 C-1.18 197.35, -3.84 119.66, 0.91 -1.85 M0.33 281.53 C-3.83 177.14, -3.05 74.91, 0.68 1.51" stroke="#2b8a3e" stroke-width="2" fill="none"></path></g><g transform="translate(380 75) rotate(0 150 130)"><text x="150" y="NaN" font-family="Virgil, Segoe UI Emoji" font-size="18px" fill="#2b8a3e" text-anchor="middle" style="white-space: pre;" direction="ltr">人类 擅长</text></g><g transform="translate(390 115) rotate(0 0 0)"><text x="0" y="NaN" font-family="Virgil, Segoe UI Emoji" font-size="14px" fill="#2b8a3e" text-anchor="start" style="white-space: pre;" direction="ltr">意义建构</text></g><g transform="translate(390 140) rotate(0 0 0)"><text x="0" y="NaN" font-family="Virgil, Segoe UI Emoji" font-size="12px" fill="#868e96" text-anchor="start" style="white-space: pre;" direction="ltr">理解上下文和意图</text></g><g transform="translate(390 175) rotate(0 0 0)"><text x="0" y="NaN" font-family="Virgil, Segoe UI Emoji" font-size="14px" fill="#2b8a3e" text-anchor="start" style="white-space: pre;" direction="ltr">问出好问题</text></g><g transform="translate(390 200) rotate(0 0 0)"><text x="0" y="NaN" font-family="Virgil, Segoe UI Emoji" font-size="12px" fill="#868e96" text-anchor="start" style="white-space: pre;" direction="ltr">AI没想过的问题</text></g><g transform="translate(390 235) rotate(0 0 0)"><text x="0" y="NaN" font-family="Virgil, Segoe UI Emoji" font-size="14px" fill="#2b8a3e" text-anchor="start" style="white-space: pre;" direction="ltr">价值判断</text></g><g transform="translate(390 260) rotate(0 0 0)"><text x="0" y="NaN" font-family="Virgil, Segoe UI Emoji" font-size="12px" fill="#868e96" text-anchor="start" style="white-space: pre;" direction="ltr">不确定性中做决策</text></g><g transform="translate(390 295) rotate(0 0 0)"><text x="0" y="NaN" font-family="Virgil, Segoe UI Emoji" font-size="14px" fill="#2b8a3e" text-anchor="start" style="white-space: pre;" direction="ltr">判断AI何时靠谱</text></g><g transform="translate(390 320) rotate(0 0 0)"><text x="0" y="NaN" font-family="Virgil, Segoe UI Emoji" font-size="12px" fill="#868e96" text-anchor="start" style="white-space: pre;" direction="ltr">监督和评估AI</text></g><g transform="translate(130 405) rotate(0 0 0)"><text x="0" y="NaN" font-family="Virgil, Segoe UI Emoji" font-size="14px" fill="#c92a2a" text-anchor="start" style="white-space: pre;" direction="ltr">核心问题：谁来判断AI何时靠谱？</text></g><g transform="translate(130 435) rotate(0 0 0)"><text x="0" y="NaN" font-family="Virgil, Segoe UI Emoji" font-size="13px" fill="#495057" text-anchor="start" style="white-space: pre;" direction="ltr">答案：还是人。所以人的判断力变得更重要，不是更不重要</text></g></svg>