<svg version="1.1" xmlns="http://www.w3.org/2000/svg" viewBox="0 0 480 415" width="480" height="415">
  <!-- svg-source:excalidraw -->
  
  <defs>
    <style>
      @font-face {
        font-family: "Virgil";
        src: url("https://excalidraw.com/Virgil.woff2");
      }
      @font-face {
        font-family: "Cascadia";
        src: url("https://excalidraw.com/Cascadia.woff2");
      }
    </style>
  </defs>
  <rect x="0" y="0" width="480" height="415" fill="#ffffff"></rect><g transform="translate(210 10) rotate(0 0 0)"><text x="0" y="NaN" font-family="Virgil, Segoe UI Emoji" font-size="22px" fill="#862e9c" text-anchor="start" style="white-space: pre;" direction="ltr">两种创新的本质区别</text></g><g transform="translate(30 65) rotate(0 0 0)"><text x="0" y="NaN" font-family="Virgil, Segoe UI Emoji" font-size="13px" fill="#495057" text-anchor="start" style="white-space: pre;" direction="ltr">维度</text></g><g transform="translate(210 65) rotate(0 0 0)"><text x="0" y="NaN" font-family="Virgil, Segoe UI Emoji" font-size="14px" fill="#1864ab" text-anchor="start" style="white-space: pre;" direction="ltr">维护性创新</text></g><g transform="translate(470 65) rotate(0 0 0)"><text x="0" y="NaN" font-family="Virgil, Segoe UI Emoji" font-size="14px" fill="#2b8a3e" text-anchor="start" style="white-space: pre;" direction="ltr">适应性创新</text></g><g stroke-linecap="round"><g transform="translate(170 85) rotate(0 0 160)"><path d="M0.57 1.2 C1.26 54.85, 1.17 266.55, 1.35 319.55 M-2.57 -0.62 C-1.88 53.68, -0.7 269.19, -0.16 322.94" stroke="#868e96" stroke-width="1" fill="none"></path></g></g><g stroke-linecap="round"><g transform="translate(430 85) rotate(0 0 160)"><path d="M0.57 1.2 C1.26 54.85, 1.17 266.55, 1.35 319.55 M-2.57 -0.62 C-1.88 53.68, -0.7 269.19, -0.16 322.94" stroke="#868e96" stroke-width="1" fill="none"></path></g></g><g transform="translate(10 115) rotate(0 0 0)"><text x="0" y="NaN" font-family="Virgil, Segoe UI Emoji" font-size="13px" fill="#495057" text-anchor="start" style="white-space: pre;" direction="ltr">目标</text></g><g transform="translate(190 115) rotate(0 0 0)"><text x="0" y="NaN" font-family="Virgil, Segoe UI Emoji" font-size="12px" fill="#1864ab" text-anchor="start" style="white-space: pre;" direction="ltr">更好</text></g><g transform="translate(190 135) rotate(0 0 0)"><text x="0" y="NaN" font-family="Virgil, Segoe UI Emoji" font-size="11px" fill="#868e96" text-anchor="start" style="white-space: pre;" direction="ltr">效率/质量/成本</text></g><g transform="translate(450 115) rotate(0 0 0)"><text x="0" y="NaN" font-family="Virgil, Segoe UI Emoji" font-size="12px" fill="#2b8a3e" text-anchor="start" style="white-space: pre;" direction="ltr">不同</text></g><g transform="translate(450 135) rotate(0 0 0)"><text x="0" y="NaN" font-family="Virgil, Segoe UI Emoji" font-size="11px" fill="#868e96" text-anchor="start" style="white-space: pre;" direction="ltr">新价值/新市场</text></g><g transform="translate(10 175) rotate(0 0 0)"><text x="0" y="NaN" font-family="Virgil, Segoe UI Emoji" font-size="13px" fill="#495057" text-anchor="start" style="white-space: pre;" direction="ltr">可预测性</text></g><g transform="translate(190 175) rotate(0 0 0)"><text x="0" y="NaN" font-family="Virgil, Segoe UI Emoji" font-size="12px" fill="#1864ab" text-anchor="start" style="white-space: pre;" direction="ltr">高</text></g><g transform="translate(190 195) rotate(0 0 0)"><text x="0" y="NaN" font-family="Virgil, Segoe UI Emoji" font-size="11px" fill="#868e96" text-anchor="start" style="white-space: pre;" direction="ltr">方向已知</text></g><g transform="translate(450 175) rotate(0 0 0)"><text x="0" y="NaN" font-family="Virgil, Segoe UI Emoji" font-size="12px" fill="#2b8a3e" text-anchor="start" style="white-space: pre;" direction="ltr">低</text></g><g transform="translate(450 195) rotate(0 0 0)"><text x="0" y="NaN" font-family="Virgil, Segoe UI Emoji" font-size="11px" fill="#868e96" text-anchor="start" style="white-space: pre;" direction="ltr">结果未知</text></g><g transform="translate(10 235) rotate(0 0 0)"><text x="0" y="NaN" font-family="Virgil, Segoe UI Emoji" font-size="13px" fill="#495057" text-anchor="start" style="white-space: pre;" direction="ltr">失败模式</text></g><g transform="translate(190 235) rotate(0 0 0)"><text x="0" y="NaN" font-family="Virgil, Segoe UI Emoji" font-size="12px" fill="#1864ab" text-anchor="start" style="white-space: pre;" direction="ltr">执行失败</text></g><g transform="translate(190 255) rotate(0 0 0)"><text x="0" y="NaN" font-family="Virgil, Segoe UI Emoji" font-size="11px" fill="#868e96" text-anchor="start" style="white-space: pre;" direction="ltr">想法对，执行差</text></g><g transform="translate(450 235) rotate(0 0 0)"><text x="0" y="NaN" font-family="Virgil, Segoe UI Emoji" font-size="12px" fill="#2b8a3e" text-anchor="start" style="white-space: pre;" direction="ltr">市场失败</text></g><g transform="translate(450 255) rotate(0 0 0)"><text x="0" y="NaN" font-family="Virgil, Segoe UI Emoji" font-size="11px" fill="#868e96" text-anchor="start" style="white-space: pre;" direction="ltr">执行好，市场不接受</text></g><g transform="translate(10 295) rotate(0 0 0)"><text x="0" y="NaN" font-family="Virgil, Segoe UI Emoji" font-size="13px" fill="#495057" text-anchor="start" style="white-space: pre;" direction="ltr">组织要求</text></g><g transform="translate(190 295) rotate(0 0 0)"><text x="0" y="NaN" font-family="Virgil, Segoe UI Emoji" font-size="12px" fill="#1864ab" text-anchor="start" style="white-space: pre;" direction="ltr">现有架构内</text></g><g transform="translate(190 315) rotate(0 0 0)"><text x="0" y="NaN" font-family="Virgil, Segoe UI Emoji" font-size="11px" fill="#868e96" text-anchor="start" style="white-space: pre;" direction="ltr">流程+标准</text></g><g transform="translate(450 295) rotate(0 0 0)"><text x="0" y="NaN" font-family="Virgil, Segoe UI Emoji" font-size="12px" fill="#2b8a3e" text-anchor="start" style="white-space: pre;" direction="ltr">不同形式</text></g><g transform="translate(450 315) rotate(0 0 0)"><text x="0" y="NaN" font-family="Virgil, Segoe UI Emoji" font-size="11px" fill="#868e96" text-anchor="start" style="white-space: pre;" direction="ltr">不同激励+标准</text></g><g transform="translate(50 405) rotate(0 0 0)"><text x="0" y="NaN" font-family="Virgil, Segoe UI Emoji" font-size="14px" fill="#c92a2a" text-anchor="start" style="white-space: pre;" direction="ltr">不能用养金鱼的方法养鲨鱼</text></g></svg>