<svg version="1.1" xmlns="http://www.w3.org/2000/svg" viewBox="0 0 710 445" width="710" height="445">
  <!-- svg-source:excalidraw -->
  
  <defs>
    <style>
      @font-face {
        font-family: "Virgil";
        src: url("https://excalidraw.com/Virgil.woff2");
      }
      @font-face {
        font-family: "Cascadia";
        src: url("https://excalidraw.com/Cascadia.woff2");
      }
    </style>
  </defs>
  <rect x="0" y="0" width="710" height="445" fill="#ffffff"></rect><g transform="translate(240 10) rotate(0 0 0)"><text x="0" y="NaN" font-family="Virgil, Segoe UI Emoji" font-size="22px" fill="#862e9c" text-anchor="start" style="white-space: pre;" direction="ltr">组织的两张图</text></g><g stroke-linecap="round" transform="translate(20 55) rotate(0 150 150)"><path d="M-3.2 -1.16 L302.09 3.62 L300.51 296.47 L1.85 303.06" stroke="none" stroke-width="0" fill="#f8f9fa"></path><path d="M1.26 1.41 C59.53 0.81, 119.18 -3.43, 298.84 0.58 M-0.95 0.39 C67.05 -0.71, 132.94 -1.54, 299.15 1.1 M302.25 -2.57 C299.58 67.05, 300.59 128.1, 302.04 298.73 M300.44 -1.17 C301.74 79.26, 300.31 161.08, 300.6 300.52 M301.54 299.69 C236.81 304.07, 168.13 303.27, 2.69 299.41 M298.62 299.79 C187.1 300.89, 75.62 300.49, 1.38 300.06 M-1.06 299.59 C-1.34 211.72, -3.88 128.18, 0.87 -1.77 M0.32 301.46 C-3.84 189.91, -3.1 80.42, 0.65 1.45" stroke="#868e96" stroke-width="2" fill="none"></path></g><g transform="translate(30 65) rotate(0 140 140)"><text x="140" y="NaN" font-family="Virgil, Segoe UI Emoji" font-size="16px" fill="#868e96" text-anchor="middle" style="white-space: pre;" direction="ltr">组织架构图</text></g><g stroke-linecap="round" transform="translate(120 85) rotate(0 50 20)"><path d="M-3.2 -1.16 L102.09 3.62 L100.51 36.47 L1.85 43.06" stroke="none" stroke-width="0" fill="#e9ecef"></path><path d="M1.71 1.93 C19.36 1.92, 38.88 -3.87, 98.41 0.78 M-1.3 0.53 C23.01 0.76, 44.44 -0.38, 98.84 1.51 M103.07 -3.5 C101.83 11.16, 103.21 14.12, 102.78 38.26 M100.6 -1.6 C100.74 9.02, 98.78 21.53, 100.81 40.7 M102.11 39.57 C80.49 41.59, 53.5 40.51, 3.67 39.19 M98.11 39.71 C62.23 40.76, 26.41 40.21, 1.88 40.08 M-1.44 39.44 C1.94 25.47, -1.52 17.42, 1.18 -2.41 M0.44 42 C-2.04 24.14, -1.03 9.1, 0.88 1.98" stroke="#495057" stroke-width="1" fill="none"></path></g><g transform="translate(130 95) rotate(0 40 10)"><text x="40" y="NaN" font-family="Virgil, Segoe UI Emoji" font-size="12px" fill="#495057" text-anchor="middle" style="white-space: pre;" direction="ltr">CEO</text></g><g stroke-linecap="round"><g transform="translate(170 125) rotate(0 0 15)"><path d="M0.57 1.2 C1.26 6.51, 1.17 24.88, 1.35 29.55 M-2.57 -0.62 C-1.88 5.35, -0.7 27.52, -0.16 32.94" stroke="#868e96" stroke-width="1" fill="none"></path></g></g><g stroke-linecap="round"><g transform="translate(170 155) rotate(0 -80 0)"><path d="M0.57 1.2 C-25.41 1.51, -132.16 -0.12, -158.65 -0.45 M-2.57 -0.62 C-28.54 0.35, -134.04 2.52, -160.16 2.94" stroke="#868e96" stroke-width="1" fill="none"></path></g></g><g stroke-linecap="round" transform="translate(50 155) rotate(0 40 17.5)"><path d="M-3.2 -1.16 L82.09 3.62 L80.51 31.47 L1.85 38.06" stroke="none" stroke-width="0" fill="#e9ecef"></path><path d="M1.71 1.93 C15.36 2, 30.88 -3.78, 78.41 0.78 M-1.3 0.53 C18.59 0.94, 35.59 -0.2, 78.84 1.51 M83.07 -3.5 C81.87 10.07, 83.26 11.94, 82.78 33.26 M80.6 -1.6 C80.7 7.67, 78.75 18.84, 80.81 35.7 M82.11 34.57 C64.81 36.2, 42.13 35.11, 3.67 34.19 M78.11 34.71 C49.75 35.71, 21.45 35.17, 1.88 35.08 M-1.44 34.44 C2.01 21.9, -1.45 15.28, 1.18 -2.41 M0.44 37 C-1.98 20.96, -0.97 7.74, 0.88 1.98" stroke="#495057" stroke-width="1" fill="none"></path></g><g transform="translate(60 165) rotate(0 30 7.5)"><text x="30" y="NaN" font-family="Virgil, Segoe UI Emoji" font-size="11px" fill="#495057" text-anchor="middle" style="white-space: pre;" direction="ltr">CFO</text></g><g stroke-linecap="round" transform="translate(210 155) rotate(0 40 17.5)"><path d="M-3.2 -1.16 L82.09 3.62 L80.51 31.47 L1.85 38.06" stroke="none" stroke-width="0" fill="#e9ecef"></path><path d="M1.71 1.93 C15.36 2, 30.88 -3.78, 78.41 0.78 M-1.3 0.53 C18.59 0.94, 35.59 -0.2, 78.84 1.51 M83.07 -3.5 C81.87 10.07, 83.26 11.94, 82.78 33.26 M80.6 -1.6 C80.7 7.67, 78.75 18.84, 80.81 35.7 M82.11 34.57 C64.81 36.2, 42.13 35.11, 3.67 34.19 M78.11 34.71 C49.75 35.71, 21.45 35.17, 1.88 35.08 M-1.44 34.44 C2.01 21.9, -1.45 15.28, 1.18 -2.41 M0.44 37 C-1.98 20.96, -0.97 7.74, 0.88 1.98" stroke="#495057" stroke-width="1" fill="none"></path></g><g transform="translate(220 165) rotate(0 30 7.5)"><text x="30" y="NaN" font-family="Virgil, Segoe UI Emoji" font-size="11px" fill="#495057" text-anchor="middle" style="white-space: pre;" direction="ltr">CTO</text></g><g transform="translate(80 325) rotate(0 0 0)"><text x="0" y="NaN" font-family="Virgil, Segoe UI Emoji" font-size="12px" fill="#868e96" text-anchor="start" style="white-space: pre;" direction="ltr">告诉你的：谁向谁汇报</text></g><g stroke-linecap="round"><g transform="translate(40 75) rotate(0 140 130)"><path d="M0.57 1.2 C47.93 44.85, 234.51 216.55, 281.35 259.55 M-2.57 -0.62 C44.79 43.68, 232.63 219.19, 279.84 262.94" stroke="#c92a2a" stroke-width="3" fill="none"></path></g></g><g stroke-linecap="round" transform="translate(400 55) rotate(0 150 150)"><path d="M-3.2 -1.16 L302.09 3.62 L300.51 296.47 L1.85 303.06" stroke="none" stroke-width="0" fill="#ebfbee"></path><path d="M1.26 1.41 C59.53 0.81, 119.18 -3.43, 298.84 0.58 M-0.95 0.39 C67.05 -0.71, 132.94 -1.54, 299.15 1.1 M302.25 -2.57 C299.58 67.05, 300.59 128.1, 302.04 298.73 M300.44 -1.17 C301.74 79.26, 300.31 161.08, 300.6 300.52 M301.54 299.69 C236.81 304.07, 168.13 303.27, 2.69 299.41 M298.62 299.79 C187.1 300.89, 75.62 300.49, 1.38 300.06 M-1.06 299.59 C-1.34 211.72, -3.88 128.18, 0.87 -1.77 M0.32 301.46 C-3.84 189.91, -3.1 80.42, 0.65 1.45" stroke="#2b8a3e" stroke-width="2" fill="none"></path></g><g transform="translate(410 65) rotate(0 140 140)"><text x="140" y="NaN" font-family="Virgil, Segoe UI Emoji" font-size="16px" fill="#2b8a3e" text-anchor="middle" style="white-space: pre;" direction="ltr">决策权分配体系</text></g><g stroke-linecap="round" transform="translate(440 105) rotate(0 50 25)"><path d="M48.13 -1.48 C56.67 -2.02, 66.12 1.1, 73.88 3.34 C81.63 5.59, 90.14 7.86, 94.68 12.01 C99.22 16.15, 102.16 23.47, 101.11 28.23 C100.07 33, 93.76 37.47, 88.42 40.59 C83.07 43.71, 77.52 45.57, 69.06 46.95 C60.59 48.32, 47.06 49.43, 37.63 48.84 C28.21 48.25, 18.3 46.79, 12.53 43.4 C6.77 40.01, 4.66 32.88, 3.03 28.5 C1.39 24.12, -0.47 21, 2.73 17.1 C5.92 13.21, 9.94 7.09, 22.2 5.11 C34.46 3.13, 63.66 3.44, 76.31 5.24 C88.96 7.03, 98.24 15.36, 98.11 15.88 M61.22 1 C69.5 2.56, 78.21 6.36, 84.23 10.1 C90.25 13.83, 95.06 19.6, 97.35 23.41 C99.64 27.22, 100.96 28.99, 97.98 32.96 C94.99 36.93, 87.39 44.31, 79.43 47.22 C71.47 50.12, 59.31 50.19, 50.22 50.4 C41.12 50.61, 32.43 51.3, 24.85 48.5 C17.27 45.71, 9.21 37.95, 4.73 33.62 C0.25 29.3, -3.42 26.88, -2.01 22.54 C-0.6 18.19, 7.28 11.3, 13.17 7.54 C19.06 3.78, 25.41 1.43, 33.33 -0.03 C41.25 -1.49, 55.72 -1.88, 60.7 -1.21 C65.67 -0.55, 62.8 3.33, 63.21 3.96" stroke="none" stroke-width="0" fill="#fff"></path><path d="M72.61 1.12 C80.45 2.66, 88.37 8.89, 92.66 13.02 C96.95 17.15, 98.56 21.66, 98.36 25.88 C98.15 30.1, 96.34 34.45, 91.42 38.32 C86.5 42.2, 77.09 47.25, 68.84 49.14 C60.58 51.04, 50.72 50.91, 41.87 49.69 C33.03 48.47, 22.27 45.26, 15.77 41.83 C9.27 38.4, 5.15 33.21, 2.85 29.1 C0.54 24.98, -1.08 21.4, 1.92 17.14 C4.93 12.87, 13.41 6.14, 20.86 3.51 C28.32 0.87, 33.99 -0.16, 46.64 1.33 C59.29 2.82, 87.96 7.89, 96.78 12.45 C105.59 17, 100.7 28.09, 99.55 28.65 M22.87 1.66 C29.07 -0.6, 37.72 -0.43, 46.81 0.09 C55.9 0.6, 69.8 2.29, 77.42 4.76 C85.04 7.24, 88.34 10.8, 92.53 14.95 C96.73 19.1, 103.33 25.05, 102.59 29.65 C101.85 34.25, 94.41 39.76, 88.11 42.54 C81.8 45.32, 73.46 44.76, 64.74 46.32 C56.02 47.87, 44.5 52.26, 35.76 51.88 C27.01 51.49, 18.23 47.77, 12.26 44.02 C6.29 40.27, 1.78 34.29, -0.05 29.39 C-1.88 24.49, -2.37 18.69, 1.29 14.63 C4.94 10.57, 17.91 6.7, 21.88 5.03 C25.85 3.36, 24.11 4.4, 25.09 4.63" stroke="#2b8a3e" stroke-width="1" fill="none"></path></g><g transform="translate(450 115) rotate(0 40 15)"><text x="40" y="NaN" font-family="Virgil, Segoe UI Emoji" font-size="12px" fill="#2b8a3e" text-anchor="middle" style="white-space: pre;" direction="ltr">资源分配</text></g><g stroke-linecap="round" transform="translate(560 105) rotate(0 50 25)"><path d="M48.13 -1.48 C56.67 -2.02, 66.12 1.1, 73.88 3.34 C81.63 5.59, 90.14 7.86, 94.68 12.01 C99.22 16.15, 102.16 23.47, 101.11 28.23 C100.07 33, 93.76 37.47, 88.42 40.59 C83.07 43.71, 77.52 45.57, 69.06 46.95 C60.59 48.32, 47.06 49.43, 37.63 48.84 C28.21 48.25, 18.3 46.79, 12.53 43.4 C6.77 40.01, 4.66 32.88, 3.03 28.5 C1.39 24.12, -0.47 21, 2.73 17.1 C5.92 13.21, 9.94 7.09, 22.2 5.11 C34.46 3.13, 63.66 3.44, 76.31 5.24 C88.96 7.03, 98.24 15.36, 98.11 15.88 M61.22 1 C69.5 2.56, 78.21 6.36, 84.23 10.1 C90.25 13.83, 95.06 19.6, 97.35 23.41 C99.64 27.22, 100.96 28.99, 97.98 32.96 C94.99 36.93, 87.39 44.31, 79.43 47.22 C71.47 50.12, 59.31 50.19, 50.22 50.4 C41.12 50.61, 32.43 51.3, 24.85 48.5 C17.27 45.71, 9.21 37.95, 4.73 33.62 C0.25 29.3, -3.42 26.88, -2.01 22.54 C-0.6 18.19, 7.28 11.3, 13.17 7.54 C19.06 3.78, 25.41 1.43, 33.33 -0.03 C41.25 -1.49, 55.72 -1.88, 60.7 -1.21 C65.67 -0.55, 62.8 3.33, 63.21 3.96" stroke="none" stroke-width="0" fill="#fff"></path><path d="M72.61 1.12 C80.45 2.66, 88.37 8.89, 92.66 13.02 C96.95 17.15, 98.56 21.66, 98.36 25.88 C98.15 30.1, 96.34 34.45, 91.42 38.32 C86.5 42.2, 77.09 47.25, 68.84 49.14 C60.58 51.04, 50.72 50.91, 41.87 49.69 C33.03 48.47, 22.27 45.26, 15.77 41.83 C9.27 38.4, 5.15 33.21, 2.85 29.1 C0.54 24.98, -1.08 21.4, 1.92 17.14 C4.93 12.87, 13.41 6.14, 20.86 3.51 C28.32 0.87, 33.99 -0.16, 46.64 1.33 C59.29 2.82, 87.96 7.89, 96.78 12.45 C105.59 17, 100.7 28.09, 99.55 28.65 M22.87 1.66 C29.07 -0.6, 37.72 -0.43, 46.81 0.09 C55.9 0.6, 69.8 2.29, 77.42 4.76 C85.04 7.24, 88.34 10.8, 92.53 14.95 C96.73 19.1, 103.33 25.05, 102.59 29.65 C101.85 34.25, 94.41 39.76, 88.11 42.54 C81.8 45.32, 73.46 44.76, 64.74 46.32 C56.02 47.87, 44.5 52.26, 35.76 51.88 C27.01 51.49, 18.23 47.77, 12.26 44.02 C6.29 40.27, 1.78 34.29, -0.05 29.39 C-1.88 24.49, -2.37 18.69, 1.29 14.63 C4.94 10.57, 17.91 6.7, 21.88 5.03 C25.85 3.36, 24.11 4.4, 25.09 4.63" stroke="#2b8a3e" stroke-width="1" fill="none"></path></g><g transform="translate(570 115) rotate(0 40 15)"><text x="40" y="NaN" font-family="Virgil, Segoe UI Emoji" font-size="12px" fill="#2b8a3e" text-anchor="middle" style="white-space: pre;" direction="ltr">优先级排序</text></g><g stroke-linecap="round" transform="translate(440 185) rotate(0 50 25)"><path d="M48.13 -1.48 C56.67 -2.02, 66.12 1.1, 73.88 3.34 C81.63 5.59, 90.14 7.86, 94.68 12.01 C99.22 16.15, 102.16 23.47, 101.11 28.23 C100.07 33, 93.76 37.47, 88.42 40.59 C83.07 43.71, 77.52 45.57, 69.06 46.95 C60.59 48.32, 47.06 49.43, 37.63 48.84 C28.21 48.25, 18.3 46.79, 12.53 43.4 C6.77 40.01, 4.66 32.88, 3.03 28.5 C1.39 24.12, -0.47 21, 2.73 17.1 C5.92 13.21, 9.94 7.09, 22.2 5.11 C34.46 3.13, 63.66 3.44, 76.31 5.24 C88.96 7.03, 98.24 15.36, 98.11 15.88 M61.22 1 C69.5 2.56, 78.21 6.36, 84.23 10.1 C90.25 13.83, 95.06 19.6, 97.35 23.41 C99.64 27.22, 100.96 28.99, 97.98 32.96 C94.99 36.93, 87.39 44.31, 79.43 47.22 C71.47 50.12, 59.31 50.19, 50.22 50.4 C41.12 50.61, 32.43 51.3, 24.85 48.5 C17.27 45.71, 9.21 37.95, 4.73 33.62 C0.25 29.3, -3.42 26.88, -2.01 22.54 C-0.6 18.19, 7.28 11.3, 13.17 7.54 C19.06 3.78, 25.41 1.43, 33.33 -0.03 C41.25 -1.49, 55.72 -1.88, 60.7 -1.21 C65.67 -0.55, 62.8 3.33, 63.21 3.96" stroke="none" stroke-width="0" fill="#fff"></path><path d="M72.61 1.12 C80.45 2.66, 88.37 8.89, 92.66 13.02 C96.95 17.15, 98.56 21.66, 98.36 25.88 C98.15 30.1, 96.34 34.45, 91.42 38.32 C86.5 42.2, 77.09 47.25, 68.84 49.14 C60.58 51.04, 50.72 50.91, 41.87 49.69 C33.03 48.47, 22.27 45.26, 15.77 41.83 C9.27 38.4, 5.15 33.21, 2.85 29.1 C0.54 24.98, -1.08 21.4, 1.92 17.14 C4.93 12.87, 13.41 6.14, 20.86 3.51 C28.32 0.87, 33.99 -0.16, 46.64 1.33 C59.29 2.82, 87.96 7.89, 96.78 12.45 C105.59 17, 100.7 28.09, 99.55 28.65 M22.87 1.66 C29.07 -0.6, 37.72 -0.43, 46.81 0.09 C55.9 0.6, 69.8 2.29, 77.42 4.76 C85.04 7.24, 88.34 10.8, 92.53 14.95 C96.73 19.1, 103.33 25.05, 102.59 29.65 C101.85 34.25, 94.41 39.76, 88.11 42.54 C81.8 45.32, 73.46 44.76, 64.74 46.32 C56.02 47.87, 44.5 52.26, 35.76 51.88 C27.01 51.49, 18.23 47.77, 12.26 44.02 C6.29 40.27, 1.78 34.29, -0.05 29.39 C-1.88 24.49, -2.37 18.69, 1.29 14.63 C4.94 10.57, 17.91 6.7, 21.88 5.03 C25.85 3.36, 24.11 4.4, 25.09 4.63" stroke="#2b8a3e" stroke-width="1" fill="none"></path></g><g transform="translate(450 195) rotate(0 40 15)"><text x="40" y="NaN" font-family="Virgil, Segoe UI Emoji" font-size="12px" fill="#2b8a3e" text-anchor="middle" style="white-space: pre;" direction="ltr">风险承担</text></g><g stroke-linecap="round" transform="translate(560 185) rotate(0 50 25)"><path d="M48.13 -1.48 C56.67 -2.02, 66.12 1.1, 73.88 3.34 C81.63 5.59, 90.14 7.86, 94.68 12.01 C99.22 16.15, 102.16 23.47, 101.11 28.23 C100.07 33, 93.76 37.47, 88.42 40.59 C83.07 43.71, 77.52 45.57, 69.06 46.95 C60.59 48.32, 47.06 49.43, 37.63 48.84 C28.21 48.25, 18.3 46.79, 12.53 43.4 C6.77 40.01, 4.66 32.88, 3.03 28.5 C1.39 24.12, -0.47 21, 2.73 17.1 C5.92 13.21, 9.94 7.09, 22.2 5.11 C34.46 3.13, 63.66 3.44, 76.31 5.24 C88.96 7.03, 98.24 15.36, 98.11 15.88 M61.22 1 C69.5 2.56, 78.21 6.36, 84.23 10.1 C90.25 13.83, 95.06 19.6, 97.35 23.41 C99.64 27.22, 100.96 28.99, 97.98 32.96 C94.99 36.93, 87.39 44.31, 79.43 47.22 C71.47 50.12, 59.31 50.19, 50.22 50.4 C41.12 50.61, 32.43 51.3, 24.85 48.5 C17.27 45.71, 9.21 37.95, 4.73 33.62 C0.25 29.3, -3.42 26.88, -2.01 22.54 C-0.6 18.19, 7.28 11.3, 13.17 7.54 C19.06 3.78, 25.41 1.43, 33.33 -0.03 C41.25 -1.49, 55.72 -1.88, 60.7 -1.21 C65.67 -0.55, 62.8 3.33, 63.21 3.96" stroke="none" stroke-width="0" fill="#fff"></path><path d="M72.61 1.12 C80.45 2.66, 88.37 8.89, 92.66 13.02 C96.95 17.15, 98.56 21.66, 98.36 25.88 C98.15 30.1, 96.34 34.45, 91.42 38.32 C86.5 42.2, 77.09 47.25, 68.84 49.14 C60.58 51.04, 50.72 50.91, 41.87 49.69 C33.03 48.47, 22.27 45.26, 15.77 41.83 C9.27 38.4, 5.15 33.21, 2.85 29.1 C0.54 24.98, -1.08 21.4, 1.92 17.14 C4.93 12.87, 13.41 6.14, 20.86 3.51 C28.32 0.87, 33.99 -0.16, 46.64 1.33 C59.29 2.82, 87.96 7.89, 96.78 12.45 C105.59 17, 100.7 28.09, 99.55 28.65 M22.87 1.66 C29.07 -0.6, 37.72 -0.43, 46.81 0.09 C55.9 0.6, 69.8 2.29, 77.42 4.76 C85.04 7.24, 88.34 10.8, 92.53 14.95 C96.73 19.1, 103.33 25.05, 102.59 29.65 C101.85 34.25, 94.41 39.76, 88.11 42.54 C81.8 45.32, 73.46 44.76, 64.74 46.32 C56.02 47.87, 44.5 52.26, 35.76 51.88 C27.01 51.49, 18.23 47.77, 12.26 44.02 C6.29 40.27, 1.78 34.29, -0.05 29.39 C-1.88 24.49, -2.37 18.69, 1.29 14.63 C4.94 10.57, 17.91 6.7, 21.88 5.03 C25.85 3.36, 24.11 4.4, 25.09 4.63" stroke="#2b8a3e" stroke-width="1" fill="none"></path></g><g transform="translate(570 195) rotate(0 40 15)"><text x="40" y="NaN" font-family="Virgil, Segoe UI Emoji" font-size="12px" fill="#2b8a3e" text-anchor="middle" style="white-space: pre;" direction="ltr">问题解决</text></g><g stroke-linecap="round"><g transform="translate(490 135) rotate(0 25 25)"><path d="M0.57 1.2 C9.59 9.85, 42.84 41.55, 51.35 49.55 M-2.57 -0.62 C6.46 8.68, 40.96 44.19, 49.84 52.94" stroke="#2b8a3e" stroke-width="1" fill="none"></path></g></g><g stroke-linecap="round"><g transform="translate(610 135) rotate(0 -25 25)"><path d="M0.57 1.2 C-7.07 9.85, -40.49 41.55, -48.65 49.55 M-2.57 -0.62 C-10.21 8.68, -42.37 44.19, -50.16 52.94" stroke="#2b8a3e" stroke-width="1" fill="none"></path></g></g><g transform="translate(440 325) rotate(0 0 0)"><text x="0" y="NaN" font-family="Virgil, Segoe UI Emoji" font-size="12px" fill="#2b8a3e" text-anchor="start" style="white-space: pre;" direction="ltr">真实的：谁做什么决定</text></g><g transform="translate(140 405) rotate(0 0 0)"><text x="0" y="NaN" font-family="Virgil, Segoe UI Emoji" font-size="14px" fill="#c92a2a" text-anchor="start" style="white-space: pre;" direction="ltr">组织结构不是组织图，而是决策权分配体系</text></g><g transform="translate(180 435) rotate(0 0 0)"><text x="0" y="NaN" font-family="Virgil, Segoe UI Emoji" font-size="12px" fill="#495057" text-anchor="start" style="white-space: pre;" direction="ltr">—— 德鲁克</text></g></svg>